<svg width="97" height="96" viewBox="0 0 97 96" fill="none" xmlns="http://www.w3.org/2000/svg">
<path d="M48.4299 96C74.9396 96 96.4299 74.5097 96.4299 48C96.4299 21.4903 74.9396 0 48.4299 0C21.9203 0 0.429932 21.4903 0.429932 48C0.429932 74.5097 21.9203 96 48.4299 96Z" fill="black"/>
<path d="M48.7101 84.5734C48.3365 84.5734 48.1497 84.5733 47.9629 84.3866L25.1771 70.192C24.9903 70.0052 24.8034 69.8185 24.6167 69.6317C24.6167 69.445 24.6167 69.4449 24.4299 69.2582C24.4299 69.0714 24.4299 68.8847 24.4299 68.6979C24.4299 68.6979 24.4299 68.6979 24.4299 68.5111L31.9007 34.5189C31.9007 34.3322 31.9007 34.3321 32.0875 34.1454C32.0875 34.1454 32.0875 33.9586 32.2743 33.9586L47.5895 13.0403C47.963 12.6668 48.3365 12.48 48.8968 12.48C49.4571 12.48 49.8307 12.6668 50.2042 13.0403L65.5194 33.9586C65.7062 34.1453 65.7061 34.3322 65.7061 34.5189L73.1769 68.5111C73.1769 68.5111 73.1769 68.5111 73.1769 68.6979C73.1769 68.8847 73.1769 69.0714 73.1769 69.2582C73.1769 69.4449 73.177 69.445 72.9902 69.6317C72.8034 69.8185 72.6167 70.0052 72.4299 70.192L49.6439 84.3866C49.2704 84.5733 49.0836 84.5734 48.7101 84.5734ZM54.4999 70.3788L51.5116 79.5305L66.2665 70.3788H54.4999ZM31.3405 70.3788L46.0952 79.5305L43.107 70.3788H31.3405ZM46.2821 70.3788L48.7101 78.0364L51.1381 70.3788H46.2821ZM55.4338 67.2037H68.8812L60.2899 51.8885L55.4338 67.2037ZM45.3482 67.2037H52.2588L58.2353 48.3399L48.7101 31.7174L39.1848 48.3399L45.3482 67.2037ZM28.5389 67.2037H41.9864L37.1303 51.8885L28.5389 67.2037ZM33.5817 40.8691L29.4728 59.3594L35.8229 48.1531L33.5817 40.8691ZM61.5973 47.9664L67.9474 59.1726L63.8384 40.6823L61.5973 47.9664ZM35.0759 35.0792L38.0641 44.2309L47.2159 27.982V18.4567L35.0759 35.0792ZM50.3911 28.1687L59.5427 44.4177L62.5311 35.266L50.3911 18.6434V28.1687Z" fill="white"/>
</svg>
