<svg width="48" height="48" viewBox="0 0 48 48" fill="none" xmlns="http://www.w3.org/2000/svg">
<mask id="mask0_1028:155" style="mask-type:alpha" maskUnits="userSpaceOnUse" x="0" y="0" width="48" height="48">
<rect x="0.5" y="0.5" width="47" height="47" rx="11.5" fill="white" stroke="#E6E8EA"/>
</mask>
<g mask="url(#mask0_1028:155)">
<path d="M7.17578 15.2334C9.30121 15.2334 11.4294 15.2334 13.5795 15.2334C13.5795 15.3805 13.5795 15.511 13.5795 15.6415C13.5822 16.2161 13.5494 16.7908 13.5959 17.3626C13.6808 18.4147 13.9657 19.4224 14.4012 20.3828C14.7956 21.2545 15.316 22.0457 15.9761 22.7258C16.7978 23.5724 17.7564 24.222 18.8958 24.5579C18.9835 24.5829 19.0465 24.619 19.0437 24.7161C19.0246 25.2436 19.104 25.7738 18.989 26.2984C18.7972 27.1646 18.2905 27.7669 17.499 28.1334C17.1374 28.2999 16.754 28.3527 16.3623 28.3527C15.0695 28.3527 13.7767 28.3527 12.4812 28.3555C11.8731 28.3582 11.3007 28.2416 10.8022 27.8724C10.0517 27.32 9.70658 26.5594 9.70658 25.6294C9.70658 23.0894 9.70658 20.5466 9.70658 18.0066C9.70658 17.9344 9.70934 17.8623 9.70658 17.7901C9.69015 17.4209 9.46829 17.2293 9.1451 17.1294C8.25219 16.8546 7.64414 16.2494 7.2196 15.4305C7.20043 15.3916 7.18399 15.35 7.1703 15.3056C7.16482 15.2917 7.17304 15.2723 7.17578 15.2334ZM10.9172 20.9325C10.9145 21.4155 11.2514 21.7736 11.717 21.782C12.1634 21.7902 12.5469 21.4127 12.5551 20.9547C12.5633 20.4828 12.1881 20.0969 11.7225 20.0941C11.3281 20.0914 10.8734 20.43 10.9172 20.9325Z" fill="white"/>
<path d="M18.0087 20.9463C18.0032 21.3572 17.6444 21.7236 17.2472 21.7208C16.8364 21.7208 16.4639 21.335 16.4748 20.9241C16.4858 20.5133 16.8446 20.1468 17.2417 20.1524C17.6553 20.1579 18.0525 20.5466 18.0087 20.9463Z" fill="white"/>
<path d="M10.9174 20.9325C10.8763 20.43 11.3283 20.0914 11.7227 20.0941C12.1883 20.0969 12.5635 20.4855 12.5553 20.9547C12.5471 21.4127 12.1636 21.7903 11.7172 21.7819C11.2516 21.7736 10.9119 21.4155 10.9174 20.9325Z" fill="black"/>
<path d="M42.1827 29.6684C42.18 29.6684 42.1854 29.6684 42.1992 29.6684C42.2019 29.6684 42.2073 29.6684 42.21 29.6657C42.2346 29.6601 42.2619 29.6573 42.2896 29.6545C42.3307 29.6434 42.3745 29.6268 42.4126 29.6101C42.4345 29.5851 42.4619 29.5685 42.4922 29.5574C42.4895 29.5546 42.4895 29.5546 42.4868 29.5518C42.8456 29.2993 42.8398 28.9384 42.8398 28.5719C42.8371 26.8758 42.8429 25.1769 42.8344 23.4808C42.8317 22.9339 42.7744 22.3926 42.6018 21.8652C41.9935 19.9969 40.2762 18.6784 38.2659 18.6589C36.1049 18.6367 33.9438 18.6312 31.7828 18.6256C28.0824 18.6145 24.3793 18.6117 20.6763 18.6034C20.6324 18.6034 20.5859 18.609 20.5448 18.6034C20.4873 18.5951 20.4297 18.5812 20.3832 18.5701C20.3229 18.3897 20.3914 18.2953 20.5366 18.237C20.5941 18.2148 20.6516 18.1898 20.7064 18.162C21.7198 17.6401 22.421 16.8212 22.8784 15.783C23.0427 15.4082 23.1934 15.0196 23.2071 14.5977C23.2235 14.1119 22.9825 13.8621 22.5059 13.8593C21.5938 13.8509 20.6817 13.8482 19.7697 13.8398C19.6848 13.8398 19.5971 13.8315 19.4985 13.8259C19.493 13.726 19.4848 13.6455 19.4848 13.5678C19.4848 13.1375 19.4903 12.7045 19.4821 12.2742C19.4766 12.0799 19.4629 11.8772 19.4108 11.6912C19.189 10.864 18.3317 10.2644 17.3594 10.4615C16.6828 10.6003 16.0803 11.2276 16.0282 11.9216C15.9899 12.4574 15.9981 12.9959 15.9871 13.5345C15.9844 13.6289 15.9762 13.7232 15.9707 13.8204H12.7771C12.7771 13.7066 12.7771 13.6094 12.7771 13.5151C12.7771 13.0487 12.7908 12.5795 12.7743 12.1132C12.7305 10.95 11.6267 10.1311 10.4517 10.5225C9.73682 10.7613 9.27667 11.4664 9.28489 12.2409C9.29036 12.6795 9.28763 13.1209 9.28489 13.5622C9.28489 13.6483 9.27394 13.7343 9.26844 13.8371C9.15343 13.8371 9.06576 13.8371 8.97812 13.8371C8.06604 13.8426 7.15397 13.8482 6.24189 13.8565C5.81187 13.8593 5.53249 14.1313 5.56536 14.5644C5.58454 14.8281 5.66123 15.0918 5.7434 15.3444C6.1515 16.5991 6.91294 17.568 8.08795 18.162C8.32898 18.2842 8.39198 18.4146 8.38924 18.67C8.38102 21.049 8.37828 23.428 8.38924 25.8098C8.39198 26.1374 8.42211 26.4788 8.51249 26.7925C8.97263 28.3443 9.9833 29.3048 11.561 29.6268C11.6021 29.6351 11.6349 29.6462 11.6623 29.6629C11.676 29.6657 11.687 29.6712 11.7007 29.6768C11.7171 29.6795 11.7363 29.6879 11.7527 29.6934C11.7801 29.6962 11.8047 29.7017 11.8267 29.7128C11.8321 29.7128 11.8376 29.7156 11.8431 29.7156C11.876 29.7156 11.9033 29.7212 11.928 29.7295C12.0485 29.7323 12.1663 29.7378 12.284 29.7434C12.3169 29.7434 12.3498 29.7434 12.3827 29.7462C12.5826 29.7378 12.7825 29.7406 12.9798 29.7406C13.0373 29.7351 13.092 29.7323 13.1496 29.7323H15.6256C15.6256 29.7351 15.6256 29.7378 15.6256 29.7406C15.6639 29.7406 15.6996 29.7434 15.7379 29.749C15.7434 29.749 15.7488 29.749 15.7543 29.749C16.0748 29.76 16.3103 29.9016 16.4528 30.2014C16.5295 30.3624 16.6171 30.5817 16.6171 30.7788C16.6226 30.801 16.6281 30.826 16.6281 30.851C16.6281 30.9954 16.6308 31.1425 16.6417 31.2868C16.6445 31.309 16.6417 31.3285 16.639 31.3479C16.6609 31.9031 16.6801 32.4611 16.702 33.0163C16.7321 33.8574 16.7705 34.7013 16.7951 35.5424C16.8143 36.1781 16.8143 36.8166 16.8335 37.4523C16.8527 38.0852 17.3073 38.5793 17.8907 38.5849C19.2273 38.5932 20.5667 38.5932 21.9033 38.5849C22.3771 38.5821 22.788 38.2379 22.8976 37.7659C23.0318 37.1802 23.1523 36.5945 23.281 36.006C23.4125 35.4119 23.5494 34.8179 23.6809 34.2238C23.7329 34.2072 23.7494 34.1988 23.7686 34.1988C26.524 34.1988 29.2794 34.1988 32.0348 34.1933C32.1936 34.1933 32.2539 34.2627 32.2813 34.407C32.358 34.7846 32.4401 35.1593 32.5223 35.5369C32.6784 36.2558 32.84 36.972 32.9879 37.691C33.0865 38.1796 33.5275 38.5821 34.015 38.5849C35.3517 38.5904 36.691 38.5904 38.0276 38.5849C38.5645 38.5821 39.0384 38.0991 39.063 37.555C39.0957 36.8749 39.1342 36.1948 39.1699 35.5146C39.2165 34.6652 39.263 33.813 39.3095 32.9635C39.3368 32.4722 39.3561 31.978 39.3834 31.4867C39.4326 30.6178 39.4876 29.7517 39.5341 28.8828C39.586 27.9251 39.6271 26.9674 39.6764 26.0069C39.7175 25.1936 39.7833 24.3774 39.7944 23.5641C39.8106 22.3898 39.4053 21.3544 38.6768 20.4494C38.6412 20.405 38.6138 20.3523 38.5672 20.2801C38.6302 20.2746 38.6631 20.2662 38.6959 20.2718C40.1339 20.4689 41.2979 21.818 41.3006 23.292C41.3033 25.0686 41.3063 26.8481 41.2979 28.6247C41.2952 28.9689 41.3417 29.2826 41.5936 29.538C41.5966 29.5407 41.5966 29.5435 41.5966 29.5463C41.7936 29.6434 41.9773 29.6684 42.1746 29.674C42.18 29.6712 42.1827 29.6684 42.1827 29.6684ZM17.3292 12.1826C17.332 11.966 17.5182 11.7912 17.7182 11.7745C17.8989 11.7606 18.1181 11.9161 18.1235 12.1187C18.14 12.6795 18.129 13.2402 18.129 13.8176H17.3238C17.3265 13.2541 17.3183 12.7183 17.3292 12.1826ZM17.2443 20.1524C17.6579 20.158 18.0523 20.5466 18.0113 20.9463C18.0058 21.3572 17.647 21.7236 17.2498 21.7208C16.839 21.7208 16.4664 21.335 16.4774 20.9241C16.4856 20.5133 16.8472 20.1469 17.2443 20.1524ZM10.6242 12.2964C10.6242 12.1992 10.6379 12.0965 10.6763 12.0105C10.7448 11.855 10.9502 11.7523 11.0899 11.7773C11.2816 11.8161 11.435 11.9799 11.4377 12.1937C11.4459 12.7045 11.4377 13.2125 11.4377 13.7232C11.4377 13.7482 11.424 13.7732 11.4076 13.8287H10.6544C10.6434 13.7676 10.627 13.7177 10.627 13.6649C10.6215 13.2069 10.6215 12.7516 10.6242 12.2964ZM17.5018 28.1333C17.1402 28.2999 16.7568 28.3526 16.3651 28.3526C15.0723 28.3526 13.7795 28.3526 12.484 28.3554C11.876 28.3582 11.3035 28.2416 10.805 27.8724C10.0545 27.32 9.70941 26.5594 9.70941 25.6294C9.70941 23.0894 9.70941 20.5466 9.70941 18.0066C9.70941 17.9344 9.71217 17.8622 9.70941 17.79C9.69299 17.4208 9.47112 17.2293 9.14793 17.1294C8.25503 16.8545 7.64698 16.2494 7.22244 15.4305C7.20327 15.3916 7.18683 15.3499 7.17314 15.3055C7.16766 15.2917 7.17588 15.2722 7.17862 15.2334H13.5823C13.5823 15.3805 13.5823 15.511 13.5823 15.6414C13.5851 16.2161 13.5522 16.7907 13.5988 17.3625C13.6837 18.4146 13.9685 19.4223 14.404 20.3828C14.7984 21.2544 15.3188 22.0456 15.9789 22.7257C16.8006 23.5724 17.7592 24.222 18.8987 24.5579C18.9863 24.5829 19.0493 24.6189 19.0466 24.7161C19.0274 25.2435 19.1068 25.7738 18.9918 26.2984C18.8001 27.1645 18.2933 27.7669 17.5018 28.1333ZM38.2741 23.9693C38.2194 24.8105 38.1838 25.6516 38.1399 26.4927C38.0851 27.567 38.0276 28.6413 37.9729 29.7156C37.9098 30.9426 37.8441 32.1696 37.7784 33.3938C37.7373 34.135 37.6935 34.8789 37.6497 35.6201C37.6223 36.0837 37.5949 36.5473 37.5647 37.0386H34.467C34.1109 35.5979 33.8151 34.135 33.4618 32.6693C33.3769 32.6609 33.3002 32.6498 33.2235 32.6498C29.7231 32.6498 26.2254 32.6498 22.725 32.6498C22.4703 32.6498 22.4593 32.672 22.4018 32.933C22.2566 33.5881 22.1033 34.2405 21.9526 34.8956C21.8102 35.5146 21.6705 36.1365 21.5335 36.7555C21.4706 37.0442 21.4733 37.0498 21.1939 37.0498C20.3339 37.0498 19.4739 37.0498 18.6166 37.0498C18.3481 37.0498 18.3372 37.0414 18.3372 36.7583C18.3262 35.0788 18.318 33.4021 18.307 31.7227C18.3016 30.9787 18.2988 30.232 18.2851 29.488C18.2824 29.3242 18.3317 29.2326 18.4714 29.1465C19.3287 28.633 19.9203 27.8918 20.2216 26.9313C20.3147 26.6371 20.3558 26.3151 20.3558 26.0042C20.3668 24.1803 20.3613 22.3593 20.3613 20.5355C20.3613 20.4633 20.364 20.3911 20.3613 20.319C20.3585 20.1968 20.4133 20.1357 20.5338 20.1357C20.5968 20.1357 20.6571 20.1357 20.7201 20.1357C21.8239 20.1357 22.9249 20.1357 24.0287 20.1357V20.133H34.5354V20.1829C35.0586 20.1829 35.5817 20.1801 36.1049 20.1801C36.2829 20.1801 36.4034 20.2384 36.5157 20.3689C36.7376 20.6243 36.9676 20.8742 37.2032 21.1157C37.9756 21.9152 38.3481 22.8534 38.2741 23.9693Z" fill="black"/>
<path d="M42.21 30.0877H42.2046H42.1992H42.1635C41.9528 30.0794 41.6978 30.0544 41.4214 29.9184L41.2598 29.8379L41.2349 29.7491C40.9338 29.3965 40.8927 28.9829 40.8927 28.6192C40.9007 27.0342 40.898 25.4519 40.8954 23.8668V23.2866C40.8954 22.3511 40.3447 21.4683 39.5588 21.002C40.0052 21.7987 40.2244 22.6592 40.2136 23.567C40.2051 24.1333 40.1724 24.6996 40.1394 25.252C40.1229 25.5101 40.1094 25.7683 40.0956 26.0265L40.0463 27.0259C40.0163 27.6504 39.986 28.2778 39.9533 28.9024C39.9259 29.3993 39.8956 29.8962 39.8683 30.3931C39.8464 30.7651 39.8245 31.1343 39.8025 31.5063C39.786 31.7755 39.7752 32.042 39.7614 32.3113C39.7506 32.5361 39.7395 32.7582 39.7287 32.9831C39.7041 33.4744 39.6764 33.9685 39.6491 34.4599L39.5641 36.0255C39.5368 36.5419 39.5095 37.0554 39.4849 37.5718C39.4492 38.3407 38.7864 38.9931 38.0387 38.9959C36.6993 39.0014 35.36 39.0014 34.0233 38.9959C33.3523 38.9931 32.7388 38.4656 32.5963 37.7716C32.4977 37.2831 32.3882 36.7945 32.2814 36.3059L32.0814 35.3871C32.0239 35.1261 31.9691 34.8652 31.9144 34.6042C29.8738 34.607 27.8387 34.607 25.8037 34.607H24.0261L23.9713 34.8541C23.8782 35.2649 23.7851 35.6758 23.6947 36.0894C23.6454 36.3143 23.5961 36.5419 23.5468 36.7667C23.4701 37.1276 23.3907 37.4913 23.3085 37.8521C23.1551 38.51 22.5717 38.9875 21.9171 38.9931C21.205 38.9959 20.5257 38.9986 19.8656 38.9986C19.1918 38.9986 18.5399 38.9959 17.899 38.9931C17.102 38.9875 16.4583 38.313 16.4337 37.458C16.4255 37.1415 16.42 36.8278 16.4145 36.5113C16.409 36.1893 16.4035 35.8701 16.3954 35.5481C16.3789 34.9762 16.3543 34.4044 16.3323 33.8298L16.2365 31.3036L16.242 31.2842C16.231 31.1371 16.2283 30.9982 16.2283 30.8678L16.2173 30.8289V30.7679C16.2173 30.7068 16.1954 30.5902 16.094 30.3709C16.0228 30.221 15.9297 30.1627 15.7517 30.1543L15.7079 30.1516C15.6805 30.1488 15.6531 30.146 15.6257 30.146L15.2504 30.1377H13.1606C13.1113 30.1377 13.0702 30.1405 13.0319 30.1433L12.9908 30.146H12.9196C12.7498 30.146 12.5799 30.146 12.4101 30.1516H12.3937H12.3773C12.3526 30.1516 12.3307 30.1488 12.3033 30.1488C12.1636 30.1433 12.0458 30.1377 11.9281 30.1349L11.6542 30.0905L11.4707 30.0128C9.77252 29.6713 8.64133 28.622 8.13187 26.9009C8.03875 26.5844 7.99219 26.2236 7.98945 25.8016C7.97849 23.5225 7.97849 21.1214 7.98945 18.6591C7.98945 18.6008 7.98397 18.573 7.98397 18.5647C7.98123 18.5647 7.96206 18.5508 7.9155 18.5258C6.68022 17.9012 5.82018 16.8713 5.36278 15.4667C5.27513 15.1946 5.18748 14.8976 5.16557 14.5867C5.14366 14.273 5.23404 13.9843 5.42577 13.7733C5.62298 13.5568 5.91605 13.4347 6.2502 13.4319C6.92673 13.4263 7.60325 13.4208 8.28252 13.418L8.88782 13.4152V13.3347C8.89058 12.9711 8.89058 12.6074 8.88782 12.241C8.87686 11.2666 9.45752 10.4144 10.3367 10.1229C11.016 9.89807 11.7254 9.99523 12.2869 10.3894C12.8402 10.7781 13.1716 11.3999 13.199 12.0911C13.2127 12.4214 13.2072 12.7546 13.2044 13.0738C13.2044 13.1821 13.2017 13.2903 13.2017 13.3986H15.5874C15.5901 13.2681 15.5901 13.1404 15.5928 13.0099C15.5956 12.6435 15.601 12.2632 15.6284 11.8829C15.6914 11.0168 16.4063 10.2256 17.2883 10.0452C18.4167 9.81479 19.526 10.4866 19.8163 11.5748C19.8684 11.7691 19.893 11.9801 19.9012 12.2577C19.9067 12.5491 19.9067 12.8406 19.9067 13.1321C19.9067 13.2265 19.9067 13.3236 19.9067 13.418L20.89 13.4236C21.435 13.4263 21.9774 13.4291 22.5224 13.4347C22.8757 13.4374 23.1524 13.5457 23.3496 13.7539C23.5468 13.9621 23.6399 14.248 23.629 14.6061C23.6125 15.1141 23.4317 15.5639 23.2647 15.9469C22.8483 16.8991 22.2458 17.6486 21.4734 18.1871L24.0426 18.1927C26.6281 18.1955 29.2165 18.201 31.802 18.2066C34.2096 18.2121 36.2337 18.2205 38.2879 18.2399C40.4408 18.2593 42.3388 19.6639 43.0098 21.7321C43.1771 22.2484 43.262 22.8175 43.2647 23.4754C43.2701 24.5164 43.2701 25.5601 43.2674 26.6011C43.2674 27.2562 43.2674 27.9114 43.2674 28.5665C43.2674 28.8386 43.2674 29.1661 43.114 29.4659L42.21 30.0877ZM17.0527 31.3647L17.1431 33.7992C17.165 34.3738 17.1869 34.9485 17.2061 35.5231C17.217 35.8479 17.2198 36.1727 17.2253 36.4975C17.2307 36.8084 17.2362 37.1221 17.2444 37.433C17.2554 37.8466 17.5348 38.1575 17.8936 38.1603C19.1562 38.1686 20.4654 38.1686 21.9034 38.1603C22.1828 38.1575 22.4348 37.9493 22.5005 37.6634C22.5827 37.308 22.6594 36.95 22.7361 36.5918C22.7854 36.3642 22.8347 36.1366 22.884 35.909C22.9744 35.4953 23.0702 35.0845 23.1633 34.6709L23.3414 33.8881L23.6043 33.8075C23.6399 33.7964 23.6974 33.7742 23.7769 33.7742H25.801C27.8826 33.7742 29.9615 33.7742 32.0431 33.7715C32.0431 33.7715 32.0431 33.7715 32.0458 33.7715C32.3882 33.7715 32.6237 33.9713 32.6949 34.3183C32.7552 34.6154 32.8182 34.9096 32.8839 35.2066L33.0839 36.1227C33.1934 36.614 33.3002 37.1082 33.4016 37.5995C33.4646 37.9077 33.7467 38.1603 34.0288 38.1603C35.3654 38.1658 36.7021 38.1658 38.0387 38.1603C38.3509 38.1603 38.6495 37.8577 38.6659 37.5273C38.6905 37.0083 38.718 36.4919 38.7453 35.9756L38.8302 34.4099C38.8576 33.9186 38.8851 33.4272 38.9097 32.9359C38.9205 32.7138 38.9316 32.4917 38.9424 32.2696C38.9562 31.9976 38.9673 31.7283 38.9835 31.4563C39.0054 31.0843 39.0274 30.7123 39.0493 30.3403C39.0796 29.8462 39.1096 29.3493 39.1342 28.8552C39.1673 28.2306 39.1973 27.606 39.2273 26.9814L39.2765 25.9821C39.2904 25.7211 39.3042 25.4602 39.3204 25.1993C39.3534 24.6579 39.3861 24.1 39.3945 23.5531C39.408 22.5288 39.0631 21.5711 38.3701 20.7049C38.3345 20.6605 38.3044 20.6161 38.2715 20.5578L37.8579 19.9082L38.5947 19.8555C38.6358 19.8499 38.696 19.8444 38.7645 19.8527C40.3943 20.0776 41.7225 21.6182 41.7252 23.2838V23.864C41.7282 25.4491 41.7282 27.0342 41.7225 28.6192C41.7225 28.9052 41.7582 29.069 41.8597 29.1939C41.9251 29.2189 41.9882 29.2327 42.0596 29.241L42.1854 29.2494C42.1965 29.2466 42.2073 29.2466 42.2158 29.2438C42.2239 29.2383 42.2319 29.2327 42.2404 29.2272L42.265 29.2105C42.4265 29.0967 42.443 28.9579 42.4403 28.5943C42.4403 27.9197 42.4403 27.2646 42.4403 26.6067C42.4403 25.5657 42.4403 24.5247 42.4376 23.4837C42.4346 22.9146 42.3661 22.4261 42.2239 21.9958C41.6624 20.2663 40.0736 19.0921 38.2742 19.0755C36.2228 19.056 34.2014 19.0477 31.7938 19.0421C29.2082 19.0366 26.6199 19.031 24.0343 19.0282L20.6846 19.0227H20.6544C20.6024 19.0227 20.5504 19.0255 20.4983 19.0172C20.4436 19.0088 20.3888 18.9977 20.3395 18.9866L20.0765 18.9311L19.9998 18.709C19.8738 18.337 20.0245 18.0012 20.3888 17.854C20.4353 17.8346 20.4819 17.8152 20.5257 17.7929C21.4159 17.3349 22.065 16.6215 22.5087 15.6138C22.6512 15.289 22.7908 14.942 22.8018 14.5867C22.8045 14.4673 22.7854 14.3785 22.7498 14.3396C22.7141 14.3008 22.6238 14.2786 22.5087 14.2786C21.9664 14.273 21.4214 14.2702 20.879 14.2674L19.7725 14.2591C19.7095 14.2591 19.6438 14.2536 19.5753 14.2508L19.1151 14.2258L19.0905 13.7622C19.085 13.6928 19.0823 13.6318 19.0823 13.5707C19.0823 13.4263 19.0823 13.282 19.0823 13.1376C19.0823 12.8545 19.085 12.5713 19.0768 12.2882C19.074 12.1577 19.0659 11.9662 19.022 11.8024C18.8659 11.2194 18.2359 10.7114 17.4471 10.8724C16.9295 10.9779 16.4803 11.4637 16.4447 11.9551C16.42 12.3076 16.4145 12.6574 16.4118 13.0294C16.409 13.2015 16.409 13.3764 16.4035 13.5485C16.3926 13.6151 16.3871 13.6873 16.3817 13.7594L16.3543 14.2369H12.3663V13.5152C12.3663 13.368 12.3691 13.2209 12.3691 13.0738C12.3718 12.7629 12.3745 12.4409 12.3636 12.13C12.3472 11.7025 12.1445 11.3194 11.8048 11.0806C11.457 10.8364 11.0105 10.7781 10.5778 10.9196C10.041 11.0973 9.68762 11.6275 9.69308 12.2354C9.69858 12.6046 9.69581 12.9739 9.69308 13.3431V13.5624C9.69308 13.6318 9.68762 13.6984 9.68212 13.7733L9.64928 14.2508L8.27156 14.2564C7.59504 14.2619 6.91851 14.2647 6.24199 14.2702C6.14064 14.2702 6.05847 14.298 6.01465 14.3452C5.97631 14.3951 5.97083 14.4757 5.97357 14.534C5.99 14.7533 6.05847 14.992 6.13243 15.2141C6.51862 16.3994 7.23897 17.2655 8.27156 17.7874C8.63857 17.9734 8.80291 18.2454 8.80018 18.6702C8.78922 21.1297 8.78922 23.5281 8.80018 25.8044C8.80291 26.1486 8.83579 26.4318 8.907 26.6705C9.32882 28.0946 10.2244 28.9274 11.6432 29.2161C11.7062 29.23 11.7692 29.2494 11.824 29.2772C11.8295 29.2799 11.8322 29.2799 11.8377 29.2827C11.8459 29.2855 11.8541 29.2883 11.8624 29.291C11.8788 29.2938 11.8952 29.2993 11.9116 29.3021C11.9363 29.3049 11.9609 29.3077 11.9856 29.3132C12.0924 29.316 12.1992 29.3216 12.3061 29.3243C12.3225 29.3243 12.3553 29.3243 12.3882 29.3243C12.5635 29.3188 12.7388 29.3188 12.9141 29.3188H12.9662C13.0319 29.3132 13.0976 29.3105 13.1633 29.3105H16.042V29.3604C16.3954 29.4437 16.6638 29.6658 16.8281 30.0128C16.9103 30.1877 17.0198 30.4486 17.0308 30.7206C17.039 30.7623 17.0417 30.8039 17.0417 30.8428C17.0417 30.9733 17.0417 31.1093 17.0554 31.2398C17.0582 31.2842 17.0554 31.3258 17.0527 31.3647ZM11.6651 30.0933C11.6734 30.0961 11.6816 30.0988 11.6871 30.1016L11.6651 30.0933ZM18.6139 37.4718C18.1209 37.4718 17.9264 37.2747 17.9237 36.7667L17.8936 31.448C17.8908 30.7984 17.8853 30.1488 17.8744 29.502C17.8689 29.1883 17.9949 28.9552 18.2633 28.7941C19.033 28.3333 19.5616 27.6643 19.8327 26.8121C19.9067 26.5789 19.9478 26.3013 19.9478 26.0098C19.956 24.6441 19.956 23.2783 19.956 21.9125V20.5439V20.4634C19.956 20.4218 19.956 20.3829 19.956 20.3413C19.9478 20.1164 20.0382 19.9776 20.1121 19.8971C20.1861 19.8194 20.3175 19.7195 20.5421 19.7278H21.3857C22.1664 19.7278 22.9497 19.7278 23.7303 19.7278H24.0316H34.9491V19.7778C35.3353 19.7778 35.7188 19.775 36.105 19.775C36.1077 19.775 36.1077 19.775 36.1104 19.775C36.398 19.775 36.6336 19.8832 36.8253 20.1081C37.0308 20.3441 37.2553 20.5884 37.4964 20.8382C38.3646 21.7265 38.7618 22.7925 38.6823 24.0028C38.644 24.5885 38.6139 25.1743 38.5865 25.76L38.381 29.7435C38.3181 30.9705 38.2523 32.1975 38.1866 33.4245C38.1537 34.038 38.1181 34.6487 38.0825 35.2621L37.951 37.4663H34.1438L34.0672 37.1526C33.8727 36.3698 33.6947 35.5675 33.5221 34.793C33.3961 34.224 33.2674 33.6521 33.1332 33.0775C29.6848 33.0775 26.2392 33.0747 22.7908 33.0775C22.7032 33.4772 22.6101 33.8769 22.5169 34.2767L22.3225 35.1178C22.191 35.698 22.0595 36.2781 21.9308 36.8583C21.8267 37.3358 21.6542 37.4774 21.1913 37.4774L18.6139 37.4718ZM18.6961 29.502C18.707 30.1627 18.7125 30.8039 18.7152 31.4424L18.7454 36.639H21.1392C21.2652 36.0588 21.3967 35.4926 21.5254 34.9235L21.7199 34.0796C21.8158 33.6687 21.9089 33.2579 21.9993 32.8471C22.0869 32.4529 22.2266 32.2364 22.7224 32.2364C26.2228 32.2364 29.7232 32.2364 33.2208 32.2364C33.2866 32.2364 33.3523 32.2419 33.4208 32.2502L33.7878 32.2835L33.859 32.575C34.0206 33.2524 34.1713 33.9297 34.3219 34.6015C34.4698 35.2677 34.6232 35.9534 34.7848 36.6279H37.1759L37.2608 35.2094C37.2964 34.5987 37.332 33.988 37.3649 33.3745C37.4306 32.1475 37.4964 30.9233 37.5594 29.6963L37.7648 25.7156C37.7949 25.1243 37.8223 24.533 37.8607 23.9445C37.9264 22.9674 37.6141 22.1429 36.9102 21.4211C36.6582 21.163 36.4199 20.9048 36.2063 20.655C36.1652 20.6078 36.1597 20.6078 36.105 20.6078C35.5818 20.6106 35.0587 20.6106 34.5355 20.6106H34.1247V20.5606L24.0289 20.5634C23.1469 20.5634 22.265 20.5634 21.383 20.5634H20.7722V21.9125C20.7722 23.2811 20.775 24.6496 20.764 26.0181C20.7612 26.3929 20.7065 26.7566 20.6079 27.0675C20.2819 28.114 19.6356 28.9329 18.6961 29.502ZM20.5366 20.5606C20.5339 20.5606 20.5339 20.5606 20.5366 20.5606V20.5606ZM12.4731 28.7719C11.7035 28.7719 11.0763 28.5887 10.5641 28.2084C9.72595 27.5922 9.30141 26.7233 9.29868 25.6267C9.29868 23.8474 9.29868 22.0679 9.29868 20.2913V17.9429C9.29868 17.8984 9.29868 17.8512 9.29868 17.8068C9.29321 17.693 9.2713 17.6014 9.02751 17.5265C8.09079 17.2377 7.35949 16.5965 6.85825 15.6221C6.82812 15.5639 6.80347 15.5 6.78156 15.4361C6.74596 15.3279 6.76239 15.2363 6.76787 15.1974L6.82539 14.8504L7.17871 14.8143H13.9933V15.6388C13.9933 15.8192 13.9905 15.9997 13.9905 16.1801C13.9851 16.5771 13.9796 16.9546 14.0097 17.3293C14.0864 18.2871 14.3466 19.2559 14.7794 20.2108C15.1655 21.0631 15.6695 21.8125 16.2748 22.4371C17.1129 23.3005 18.0086 23.864 19.0165 24.161C19.4438 24.2887 19.463 24.633 19.4603 24.7357C19.4548 24.905 19.4575 25.0716 19.463 25.2409C19.4739 25.6101 19.4822 25.9932 19.3945 26.3929C19.1754 27.3756 18.5975 28.089 17.6717 28.5137C17.2937 28.6886 16.8801 28.7692 16.3652 28.7692H14.9546C14.1329 28.7692 13.3085 28.7692 12.4869 28.7719C12.4814 28.7719 12.4786 28.7719 12.4731 28.7719ZM7.83059 15.6499C8.20309 16.194 8.67694 16.5493 9.2658 16.7325C9.97793 16.9518 10.1067 17.4793 10.1176 17.7763C10.1204 17.8346 10.1204 17.8956 10.1204 17.9539V20.2969C10.1204 22.0763 10.1204 23.8529 10.1204 25.6323C10.1204 26.4568 10.4244 27.0814 11.0461 27.5394C11.4214 27.817 11.8843 27.9419 12.4841 27.9419C13.3085 27.9391 14.1302 27.9391 14.9546 27.9391H16.3652C16.7569 27.9391 17.0637 27.8808 17.3321 27.7587C18.0195 27.4422 18.4331 26.9342 18.592 26.2097C18.6577 25.9127 18.6495 25.5962 18.6413 25.2631C18.6386 25.1465 18.6358 25.0299 18.6358 24.9133C17.5594 24.5636 16.5706 23.9306 15.6887 23.0201C15.0177 22.3289 14.4589 21.4989 14.0344 20.5578C13.5605 19.5141 13.2784 18.4509 13.1935 17.396C13.1606 16.9824 13.1661 16.5687 13.1716 16.169C13.1743 15.9969 13.1771 15.822 13.1743 15.6499H7.83059ZM17.2499 22.1401H17.2471C16.9404 22.1401 16.6336 22.0041 16.4063 21.7681C16.1817 21.5349 16.0557 21.2241 16.0639 20.9159C16.0804 20.2747 16.6145 19.7389 17.2335 19.7389C17.239 19.7389 17.2444 19.7389 17.2471 19.7389C17.5731 19.7445 17.9073 19.9027 18.1346 20.1636C18.3428 20.3996 18.4414 20.6883 18.4167 20.9742C18.403 21.6071 17.8716 22.1401 17.2499 22.1401ZM17.2335 20.5689C17.0637 20.5689 16.8911 20.7521 16.8856 20.9354C16.8829 21.0186 16.924 21.113 16.9952 21.1852C17.0664 21.2601 17.1622 21.3073 17.2499 21.3073C17.4197 21.3073 17.595 21.1241 17.5978 20.9437L17.6005 20.9048C17.606 20.8493 17.5758 20.7771 17.521 20.7161C17.4444 20.63 17.3348 20.5717 17.2362 20.5717C17.2362 20.5689 17.2362 20.5689 17.2335 20.5689ZM11.7144 14.2425H10.3094L10.2409 13.8594C10.2299 13.8094 10.2162 13.7428 10.2162 13.6651C10.2135 13.207 10.2108 12.749 10.2162 12.291C10.219 12.1189 10.2464 11.969 10.3011 11.8413C10.4435 11.5165 10.8325 11.3027 11.1666 11.3693C11.5611 11.4471 11.8404 11.783 11.8459 12.1883C11.8514 12.5852 11.8487 12.985 11.8459 13.3819L11.8432 13.7234C11.8432 13.8094 11.8213 13.876 11.8076 13.9149L11.7144 14.2425ZM11.0571 12.1883C11.0571 12.1883 11.0544 12.1883 11.0544 12.191C11.0571 12.1883 11.0598 12.1883 11.0571 12.1883C11.0598 12.1883 11.0598 12.1883 11.0571 12.1883ZM18.5427 14.2369H16.9158V13.3375C16.9158 12.9433 16.913 12.5602 16.9212 12.1771C16.9295 11.7552 17.2663 11.3943 17.6882 11.361C17.8963 11.3444 18.1182 11.4249 18.2852 11.5748C18.4441 11.7191 18.5345 11.9079 18.5399 12.1105C18.5509 12.5186 18.5509 12.9322 18.5482 13.332L18.5427 14.2369Z" fill="black"/>
<path d="M37.2058 21.1268C36.9702 20.8853 36.7401 20.6354 36.5183 20.3801C36.4033 20.2496 36.2855 20.1885 36.1075 20.1913C35.7432 20.1941 35.3816 20.1941 35.0173 20.1941V20.1552H24.9215C24.8339 20.1524 24.7435 20.1469 24.6558 20.1469C23.3439 20.1441 22.0319 20.1441 20.7227 20.1441C20.6597 20.1441 20.5994 20.1441 20.5364 20.1441C20.4159 20.1441 20.3584 20.2052 20.3639 20.3273C20.3666 20.3995 20.3639 20.4717 20.3639 20.5438C20.3639 22.3677 20.3694 24.1887 20.3584 26.0125C20.3556 26.3234 20.3146 26.6454 20.2242 26.9397C19.9202 27.8974 19.3313 28.6413 18.474 29.1549C18.3315 29.241 18.285 29.3326 18.2877 29.4963C18.3014 30.2403 18.3042 30.9871 18.3096 31.731C18.3206 33.4105 18.3288 35.0872 18.3398 36.7666C18.3425 37.0498 18.3507 37.0581 18.6191 37.0581C19.4792 37.0581 20.3392 37.0581 21.1965 37.0581C21.4759 37.0581 21.4731 37.0526 21.5361 36.7639C21.6731 36.142 21.8128 35.523 21.9552 34.904C22.1031 34.2488 22.2592 33.5965 22.4044 32.9414C22.4619 32.6804 22.4729 32.6582 22.7276 32.6582C26.228 32.6582 29.7257 32.6582 33.226 32.6582C33.3028 32.6582 33.3794 32.6693 33.4643 32.6776C33.8177 34.1461 34.1107 35.6063 34.4695 37.047C35.5158 37.047 36.5238 37.047 37.5673 37.047C37.5974 36.5557 37.6248 36.0921 37.6522 35.6285C37.6961 34.8873 37.7399 34.1433 37.781 33.4021C37.8467 32.1752 37.9124 30.9482 37.9754 29.724C38.0329 28.6497 38.0877 27.5754 38.1425 26.5011C38.1863 25.66 38.2219 24.8188 38.2767 23.9777C38.3479 22.8534 37.9754 21.9152 37.2058 21.1268Z" fill="white"/>
<path d="M25.8667 24.755C27.4005 24.755 28.644 23.4947 28.644 21.9402C28.644 20.3856 27.4005 19.1253 25.8667 19.1253C24.3328 19.1253 23.0894 20.3856 23.0894 21.9402C23.0894 23.4947 24.3328 24.755 25.8667 24.755Z" fill="black"/>
<path d="M33.7821 30.3153C35.0725 30.3153 36.1185 29.2551 36.1185 27.9473C36.1185 26.6396 35.0725 25.5795 33.7821 25.5795C32.4918 25.5795 31.4458 26.6396 31.4458 27.9473C31.4458 29.2551 32.4918 30.3153 33.7821 30.3153Z" fill="black"/>
<path d="M25.9297 33.5465C27.2143 33.5049 28.477 33.6825 29.7424 33.8658C29.7753 33.8658 29.8081 33.8658 29.8382 33.8658C29.8657 33.6798 29.8821 33.4882 29.8821 33.2939C29.8821 31.2175 28.2195 29.5325 26.1708 29.5325C24.122 29.5325 22.4595 31.2175 22.4595 33.2939C22.4595 33.6603 22.5115 34.0129 22.6074 34.3488C23.4756 33.4632 24.8013 33.5826 25.9297 33.5465Z" fill="black"/>
<path d="M27.6663 18.9338C27.5814 18.9338 27.502 18.9227 27.4225 18.9005C27.1021 19.2586 26.9131 19.6888 26.9131 20.1497C26.9131 21.4044 28.299 22.4232 30.0109 22.4232C31.72 22.4232 33.1086 21.4044 33.1086 20.1497C33.1086 19.7027 32.9333 19.2863 32.6293 18.9338H27.6663Z" fill="black"/>
<path d="M16.4775 20.9325C16.4364 20.43 16.8883 20.0914 17.2827 20.0941C17.7483 20.0969 18.1236 20.4855 18.1154 20.9547C18.1071 21.4127 17.7237 21.7903 17.2773 21.7819C16.8116 21.7736 16.4747 21.4155 16.4775 20.9325Z" fill="white"/>
<path d="M11.5064 13.4567C11.1256 13.4567 10.7613 13.4567 10.3834 13.4567C10.3669 13.379 10.3423 13.3124 10.3423 13.2458C10.3395 12.66 10.3368 12.8321 10.3423 12.2464C10.345 12.1243 10.3614 11.991 10.419 11.88C10.5203 11.6801 10.8271 11.5469 11.0325 11.5802C11.3201 11.6274 11.5447 11.8411 11.5502 12.1159C11.5611 12.7711 11.5529 12.6684 11.5502 13.3235C11.5502 13.354 11.531 13.3873 11.5064 13.4567Z" fill="white"/>
<path d="M18.2878 13.4567C17.9071 13.4567 17.5428 13.4567 17.1649 13.4567C17.1484 13.379 17.1238 13.3124 17.1238 13.2458C17.121 12.66 17.1183 12.8321 17.1238 12.2464C17.1265 12.1243 17.1429 11.991 17.2005 11.88C17.3018 11.6801 17.6086 11.5469 17.814 11.5802C18.1016 11.6274 18.3262 11.8411 18.3316 12.1159C18.3426 12.7711 18.3344 12.6684 18.3316 13.3235C18.3316 13.354 18.3125 13.3873 18.2878 13.4567Z" fill="white"/>
</g>
</svg>
