<svg width="48" height="48" viewBox="0 0 48 48" fill="none" xmlns="http://www.w3.org/2000/svg">
<mask id="mask0_3750:4524" style="mask-type:alpha" maskUnits="userSpaceOnUse" x="0" y="0" width="48" height="48">
<rect width="48" height="48" rx="12" fill="white"/>
</mask>
<g mask="url(#mask0_3750:4524)">
<rect width="48" height="48" rx="12" fill="url(#paint0_linear_3750:4524)"/>
<path opacity="0.8" fill-rule="evenodd" clip-rule="evenodd" d="M37.9552 30.2455C37.9552 35.5109 33.6227 39.7793 28.2784 39.7793H10V33.4234H28.2784C30.0599 33.4234 31.504 32.0006 31.504 30.2455C31.504 28.4904 30.0599 27.0676 28.2784 27.0676H21.8272V20.7117H28.2784C30.0599 20.7117 31.504 19.2889 31.504 17.5338C31.504 15.7787 30.0599 14.3559 28.2784 14.3559H10V8H28.2784C33.6227 8 37.9552 12.2684 37.9552 17.5338C37.9552 19.9756 37.0235 22.2029 35.4912 23.8897C37.0235 25.5764 37.9552 27.8037 37.9552 30.2455Z" fill="white"/>
<path opacity="0.12" d="M10 33.4234H25.6993C22.3645 37.2829 17.0552 39.7793 11.0752 39.7793C10.7143 39.7793 10.3558 39.7702 10 39.7523V33.4234ZM28.988 27.0676H22.9024V20.7117H28.988C29.2277 21.7385 29.3536 22.8013 29.3536 23.8897C29.3536 24.978 29.2277 26.0408 28.988 27.0676ZM25.6993 14.3559H10V8.02703C10.3558 8.00909 10.7143 8 11.0752 8C17.0552 8 22.3645 10.4964 25.6993 14.3559Z" fill="white"/>
<path d="M10 8C18.9072 8 26.128 15.114 26.128 23.8897C26.128 32.6653 18.9072 39.7793 10 39.7793V33.4234C15.3443 33.4234 19.6768 29.155 19.6768 23.8897C19.6768 18.6243 15.3443 14.3559 10 14.3559V8Z" fill="white"/>
</g>
<defs>
<linearGradient id="paint0_linear_3750:4524" x1="24" y1="0" x2="24" y2="48" gradientUnits="userSpaceOnUse">
<stop stop-color="#F9957A"/>
<stop offset="1" stop-color="#FF6238"/>
</linearGradient>
</defs>
</svg>
