<svg width="48" height="48" viewBox="0 0 48 48" fill="none" xmlns="http://www.w3.org/2000/svg">
<mask id="mask0_1028:79" style="mask-type:alpha" maskUnits="userSpaceOnUse" x="0" y="0" width="48" height="48">
<rect x="0.5" y="0.5" width="47" height="47" rx="11.5" fill="white" stroke="#E6E8EA"/>
</mask>
<g mask="url(#mask0_1028:79)">
<path d="M24 72C50.5097 72 72 50.5097 72 24C72 -2.50967 50.5097 -24 24 -24C-2.50967 -24 -24 -2.50967 -24 24C-24 50.5097 -2.50967 72 24 72Z" fill="url(#paint0_linear_1028:79)"/>
<path fill-rule="evenodd" clip-rule="evenodd" d="M13.8406 13.002C13.3558 10.402 15.3521 8 17.9961 8C20.3295 8 22.2235 9.89216 22.2235 12.2262V17.4365C22.8069 17.3952 23.3978 17.3741 24.0001 17.3741C24.5759 17.3741 25.1479 17.3936 25.7085 17.4317V12.2262C25.7085 9.89216 27.6025 8 29.936 8C32.58 8 34.5763 10.402 34.0914 13.002L32.9474 19.1264C36.8718 20.84 39.8379 23.8164 39.8379 27.5563V29.819C39.8379 32.8946 37.8037 35.4697 34.9589 37.2079C32.0913 38.9596 28.2162 40.0013 24.0001 40.0013C19.784 40.0013 15.9051 38.9596 13.0413 37.2079C10.1965 35.4697 8.16235 32.8946 8.16235 29.819V27.5563C8.16235 23.8362 11.0981 20.8713 14.9922 19.1542L13.8406 13.002ZM31.4815 19.931L32.8186 12.7647C33.1558 10.9602 31.7694 9.293 29.936 9.293C28.3147 9.293 27.0002 10.6062 27.0002 12.2262V18.8566C26.576 18.8022 26.1479 18.759 25.7085 18.7278C25.1479 18.6877 24.5797 18.6671 24.0001 18.6671C23.3978 18.6671 22.8031 18.6894 22.2235 18.7328C21.7841 18.7654 21.3523 18.8098 20.928 18.8655V12.2262C20.928 10.6062 19.6174 9.293 17.9961 9.293C16.1589 9.293 14.7763 10.9601 15.1134 12.7647L16.4543 19.9548C12.2572 21.514 9.45408 24.3351 9.45408 27.5563V29.819C9.45408 34.7284 15.9657 38.7081 24.0001 38.7081C32.0345 38.7081 38.5461 34.7284 38.5461 29.819V27.5563C38.5461 24.3186 35.7127 21.4852 31.4815 19.931Z" fill="#633001"/>
<path d="M38.5461 29.8191C38.5461 34.7285 32.0345 38.7085 24.0001 38.7085C15.9657 38.7085 9.4541 34.7285 9.4541 29.8191V27.5564H38.5461V29.8191Z" fill="#FEDC90"/>
<path fill-rule="evenodd" clip-rule="evenodd" d="M15.1134 12.7646C14.7763 10.9601 16.1589 9.29291 17.9961 9.29291C19.6174 9.29291 20.928 10.6062 20.928 12.2261V18.8655C21.9205 18.7355 22.9471 18.667 24.0001 18.667C25.0305 18.667 26.0343 18.7323 27.004 18.8565V12.2261C27.004 10.6062 28.3147 9.29291 29.936 9.29291C31.7694 9.29291 33.1558 10.9601 32.8187 12.7646L31.4815 19.9309C35.7127 21.4851 38.5461 24.3186 38.5461 27.5563C38.5461 32.4656 32.0345 36.4455 24.0001 36.4455C15.9657 36.4455 9.4541 32.4656 9.4541 27.5563C9.4541 24.335 12.2572 21.5139 16.4544 19.9547L15.1134 12.7646Z" fill="#D1884F"/>
<path d="M19.958 26.9096C19.958 28.2485 19.2344 29.334 18.3443 29.334C17.4503 29.334 16.7268 28.2485 16.7268 26.9096C16.7268 25.5707 17.4503 24.4853 18.3443 24.4853C19.2344 24.4853 19.958 25.5707 19.958 26.9096Z" fill="#633001"/>
<path d="M31.1103 26.9096C31.1103 28.2485 30.3868 29.334 29.4966 29.334C28.6027 29.334 27.8792 28.2485 27.8792 26.9096C27.8792 25.5707 28.6027 24.4853 29.4966 24.4853C30.3868 24.4853 31.1103 25.5707 31.1103 26.9096Z" fill="#633001"/>
</g>
<defs>
<linearGradient id="paint0_linear_1028:79" x1="24" y1="-24" x2="24" y2="72" gradientUnits="userSpaceOnUse">
<stop stop-color="#54DADE"/>
<stop offset="0.762157" stop-color="#24C7D6"/>
</linearGradient>
</defs>
</svg>
