<svg width="48" height="48" viewBox="0 0 48 48" fill="none" xmlns="http://www.w3.org/2000/svg">
<mask id="mask0_1028:96" style="mask-type:alpha" maskUnits="userSpaceOnUse" x="0" y="0" width="48" height="48">
<rect x="0.5" y="0.5" width="47" height="47" rx="11.5" fill="white" stroke="#E6E8EA"/>
</mask>
<g mask="url(#mask0_1028:96)">
<path d="M24 72C50.5097 72 72 50.5097 72 24C72 -2.50967 50.5097 -24 24 -24C-2.50967 -24 -24 -2.50967 -24 24C-24 50.5097 -2.50967 72 24 72Z" fill="url(#paint0_linear_1028:96)"/>
<path fill-rule="evenodd" clip-rule="evenodd" d="M15.6219 21.406H11.5239C10.6856 21.406 10 20.7203 10 19.882C10 19.0437 10.6859 18.3581 11.5239 18.3581H14.4675L11.3264 10.0631C11.0295 9.27931 11.4279 8.39521 12.2117 8.09832C12.9955 7.80168 13.8796 8.20011 14.1765 8.98388L17.7265 18.3581H29.5642L33.1142 8.98388C33.4111 8.19987 34.295 7.80144 35.079 8.09832C35.863 8.39521 36.2614 9.27931 35.9645 10.0631L32.8234 18.3581H36.7183C37.5566 18.3581 38.2422 19.0437 38.2422 19.882C38.2422 20.7203 37.5563 21.406 36.7183 21.406H31.6693H28.4104H18.8808H15.6219ZM30.592 24.2512H36.718C37.5563 24.2512 38.2419 24.9368 38.2419 25.7749C38.2419 26.6132 37.5561 27.2988 36.718 27.2988H29.438L25.1483 38.6264C24.9091 39.2585 24.2879 39.6392 23.6455 39.6077C23.003 39.6392 22.3818 39.2585 22.1426 38.6264L17.8532 27.2991H11.5239C10.6856 27.2991 10 26.6132 10 25.7751C10 24.9368 10.6859 24.2512 11.5239 24.2512H16.6989H19.9578H27.3331H30.592ZM21.1119 27.2988L23.6455 33.9892L26.179 27.2988H21.1119Z" fill="white"/>
</g>
<defs>
<linearGradient id="paint0_linear_1028:96" x1="24" y1="-24" x2="24" y2="72" gradientUnits="userSpaceOnUse">
<stop stop-color="#F2C265"/>
<stop offset="0.762157" stop-color="#F7B44F"/>
</linearGradient>
</defs>
</svg>
