<svg width="24" height="24" viewBox="0 0 24 24" fill="none" xmlns="http://www.w3.org/2000/svg">
<path d="M23.7741 13.8312C22.766 17.8971 18.6439 20.3613 14.589 19.3532C10.5341 18.3451 8.05862 14.2232 9.06674 10.1685C10.0749 6.1026 14.1858 3.63841 18.2518 4.64649C22.3179 5.66576 24.7822 9.77648 23.7741 13.8312Z" fill="#1E2026"/>
<g clip-path="url(#clip0)">
<path d="M14.3238 11.0925L16.5066 8.88478L18.6904 11.0937L19.9605 9.80899L16.5066 6.31543L13.0537 9.80785L14.3238 11.0925ZM12.1569 10.7149L13.4269 11.9995L12.1568 13.2842L10.8867 11.9996L12.1569 10.7149ZM14.3238 12.9067L16.5066 15.1144L18.6904 12.9056L19.9612 14.1896L19.9605 14.1903L16.5066 17.6839L13.0537 14.1914L13.0519 14.1897L14.3238 12.9067ZM22.1265 11.9998L20.8564 13.2844L19.5863 11.9998L20.8564 10.7151L22.1265 11.9998Z" fill="#F0B90B"/>
<path d="M17.7945 11.9989H17.7951L16.5063 10.6953L15.5537 11.6587H15.5537L15.4443 11.7694L15.2186 11.9978L15.2168 11.9995L15.2186 12.0014L16.5063 13.3038L17.795 12.0002L17.7957 11.9995L17.7945 11.9989Z" fill="#F0B90B"/>
</g>
<path d="M14.9323 13.8312C13.9242 17.8971 9.80209 20.3613 5.74721 19.3532C1.69232 18.3451 -0.783175 14.2232 0.224945 10.1685C1.23306 6.1026 5.34395 3.63841 9.41004 4.64649C13.4761 5.66576 15.9404 9.77648 14.9323 13.8312Z" fill="#F6921A"/>
<path d="M11.2445 11.0769C11.3978 10.0157 10.5959 9.44969 9.48749 9.06057L9.84125 7.62202L8.96864 7.39798L8.61488 8.80116C8.37904 8.74221 8.1432 8.69504 7.91915 8.63608L8.27291 7.22111L7.4003 6.99707L7.04655 8.43563C6.85788 8.38846 6.66921 8.35309 6.49233 8.30592L5.28954 7.99934L5.0537 8.93087C5.0537 8.93087 5.70226 9.08416 5.69047 9.08416C6.04423 9.17849 6.11498 9.40252 6.10319 9.59119L5.69047 11.2302C5.71406 11.242 5.74944 11.242 5.78481 11.2538C5.76123 11.242 5.72585 11.242 5.69047 11.2302L5.11266 13.5295C5.0655 13.6356 4.95938 13.8007 4.71175 13.7418C4.72354 13.7536 4.07498 13.5885 4.07498 13.5885L3.63867 14.5908L4.7825 14.8738C4.99475 14.9327 5.207 14.9799 5.40746 15.0388L5.04192 16.4892L5.91452 16.7132L6.26828 15.2747C6.50412 15.3454 6.73996 15.4044 6.96401 15.4515L6.61025 16.8783L7.48286 17.1023L7.8484 15.652C9.34598 15.935 10.4662 15.8171 10.9379 14.4728C11.3152 13.388 10.9143 12.7631 10.136 12.3504C10.7021 12.2325 11.1266 11.8551 11.2445 11.0769ZM9.23984 13.8833C8.96863 14.9681 7.14089 14.3785 6.5395 14.237L7.02297 12.315C7.62436 12.4565 9.52285 12.7513 9.23984 13.8833ZM9.51107 11.0651C9.26343 12.0556 7.74228 11.5486 7.24702 11.4307L7.68331 9.68552C8.17858 9.80343 9.77049 10.0275 9.51107 11.0651Z" fill="white"/>
<defs>
<clipPath id="clip0">
<rect width="11.3684" height="11.3684" fill="white" transform="translate(10.7363 6.31543)"/>
</clipPath>
</defs>
</svg>
