<svg width="207" height="207" viewBox="0 0 207 207" fill="none" xmlns="http://www.w3.org/2000/svg">
<circle cx="103.442" cy="103.438" r="103.18" fill="#1E2226"/>
<path d="M95.604 28.7739L28.7763 95.6016C24.4485 99.9294 24.4485 106.946 28.7763 111.274L95.604 178.102C99.9318 182.429 106.949 182.429 111.276 178.102L178.104 111.274C182.432 106.946 182.432 99.9294 178.104 95.6016L111.276 28.7739C106.949 24.4461 99.9318 24.4461 95.604 28.7739Z" fill="#F0B80B"/>
<path d="M104.416 70.2491C108.046 70.545 113.116 70.7049 118.105 71.4165C124.382 72.32 130.474 74.0791 135.695 77.941C139.405 80.7075 142.26 84.2096 143.259 88.895C143.819 91.5256 144.291 94.1881 144.738 96.8427C144.962 98.162 144.323 98.8816 142.979 98.6577C138.982 98.0181 135.056 97.3464 131.114 96.6028C130.471 96.4356 129.906 96.0515 129.515 95.5154C128.235 93.7484 126.117 93.1167 124.485 94.444C122.854 95.7713 121.231 95.6673 119.344 95.6114C110.613 95.3475 101.874 95.2436 93.1345 95.0997C91.5354 95.0997 90.2161 95.2995 89.1367 93.3886C87.7534 90.9419 83.3558 91.3017 81.9406 93.7804C81.6063 94.4384 81.1011 94.9943 80.4778 95.3897C79.8545 95.785 79.1363 96.0052 78.3985 96.0272C74.6246 96.403 70.8746 96.9786 67.1167 97.4744C66.8848 97.4744 66.6609 97.5303 66.429 97.5463C63.4866 97.7382 62.9829 97.2425 63.1828 94.2761C63.5666 88.3513 65.7174 83.1462 70.0671 79.0844C72.8895 76.4538 76.4636 74.8546 80.1096 73.5993C87.4896 71.0887 95.2294 70.7049 104.416 70.2491ZM95.893 76.3339C97.1963 75.4064 98.6595 74.8946 99.0913 73.9352C99.5231 72.9757 98.1318 72.8317 97.3243 72.8237C96.1169 72.8237 94.7496 72.8237 94.5897 74.4229C94.5338 74.9106 95.2774 75.4543 95.893 76.3339ZM110.613 72.2561L108.046 73.8552C108.991 74.4613 110.016 74.9298 111.093 75.2464C111.604 75.3264 112.292 74.3749 112.9 73.8872L110.613 72.2561ZM81.0291 78.9964L84.2913 76.3818C83.8036 76.022 83.3478 75.4144 82.8281 75.3584C81.4129 75.1905 79.5739 76.2939 79.7338 77.1334C79.8138 77.6132 80.3575 78.0529 81.0131 78.9564L81.0291 78.9964ZM101.962 78.1249C102.761 78.0129 103.177 78.0769 103.393 77.893C104.014 77.3262 104.607 76.7284 105.168 76.102C104.457 75.8122 103.731 75.5613 102.993 75.3504C102.824 75.3166 102.65 75.3169 102.481 75.3512C102.312 75.3855 102.152 75.4532 102.01 75.5503C101.45 76.0217 100.916 76.5235 100.411 77.0535L101.962 78.1249ZM123.03 75.5743C123.71 77.3093 124.949 78.1649 126.436 77.877C126.921 77.7774 127.347 77.4899 127.62 77.0774C127.74 76.8776 127.388 76.2299 127.092 75.974C126.549 75.4747 125.859 75.1625 125.126 75.0834C124.392 75.0043 123.652 75.1623 123.014 75.5343L123.03 75.5743ZM114.795 78.5327C115.594 78.4127 116.058 78.4847 116.33 78.2688C116.882 77.829 117.729 77.1894 117.689 76.6697C117.601 75.6542 116.682 75.4063 115.714 75.7422C115.32 75.8239 114.944 75.9756 114.603 76.1899C114.201 76.5924 113.837 77.0314 113.515 77.5012L114.795 78.5327ZM90.2721 79.3322C91.0716 78.5327 91.9991 78.0689 91.9831 77.6052C91.9352 76.006 90.384 76.2299 89.3845 76.1419C88.8408 76.094 88.2332 76.7736 87.6575 77.1254L90.2721 79.3322Z" fill="#1E2125"/>
<path d="M100.179 136.629C93.9821 136.285 87.7694 136.165 81.6048 135.542C73.945 134.742 67.5724 131.616 64.1743 124.188C63.6408 122.86 63.3562 121.445 63.3347 120.014C63.3347 119.59 64.3102 118.695 64.8059 118.719C68.6998 118.935 72.5777 119.375 76.4716 119.638C80.1416 119.878 83.8116 119.99 87.4816 120.142C88.665 120.19 89.5205 120.446 89.9363 121.797C90.3357 122.748 90.8986 123.623 91.5994 124.38C93.0626 126.291 94.7177 126.467 96.6286 125.003C97.3243 124.61 97.9689 124.132 98.5476 123.58C100.738 120.718 103.649 120.246 107.071 120.23C117.53 120.137 127.967 119.258 138.294 117.599C139.533 117.408 140.741 117.024 141.972 116.8C143.419 116.544 144.067 117.16 144.115 118.679C144.299 124.332 140.917 129.161 135.855 131.656C127.7 135.654 118.921 135.933 110.181 136.501C106.863 136.717 103.521 136.501 100.187 136.501L100.179 136.629Z" fill="#1E2125"/>
<path d="M144.954 107.069C142.164 106.006 139.501 105.158 136.959 103.983C135.256 103.183 133.88 102.807 132.209 104.103C131.403 104.733 130.417 105.09 129.394 105.12C128.372 105.15 127.366 104.853 126.524 104.271C125.915 103.854 125.196 103.626 124.458 103.616C123.72 103.606 122.995 103.814 122.375 104.215C120.996 104.94 119.466 105.33 117.908 105.352C116.351 105.375 114.81 105.029 113.411 104.343C112.772 103.974 112.055 103.759 111.318 103.716C110.581 103.673 109.844 103.803 109.166 104.095C108.444 104.476 107.622 104.622 106.814 104.513C106.005 104.404 105.251 104.045 104.656 103.487C104.221 103.024 103.639 102.727 103.008 102.646C102.378 102.566 101.739 102.708 101.202 103.047C99.8455 103.687 98.3643 104.019 96.8645 104.019C95.3647 104.019 93.8834 103.687 92.5268 103.047C91.2395 102.52 90.384 102.376 89.3286 103.791C88.577 104.814 86.9859 105.39 85.6506 105.782C84.4179 106.199 83.1128 106.358 81.816 106.251C80.5192 106.144 79.2582 105.772 78.1107 105.158C77.4333 104.783 76.684 104.555 75.9122 104.49C75.1404 104.425 74.3636 104.525 73.6331 104.782C71.3144 105.422 68.9956 105.502 66.7888 104.231C65.5495 103.519 64.558 104.231 63.4466 104.838C62.0191 105.626 60.4753 106.182 58.8731 106.485C58.4172 106.476 57.9716 106.349 57.5793 106.116C57.1871 105.884 56.8615 105.554 56.6343 105.158C56.5768 104.678 56.6403 104.191 56.819 103.741C56.9978 103.291 57.2861 102.893 57.6578 102.584C59.8166 101.456 62.1034 100.225 64.4621 99.905C70.059 99.1055 75.7759 98.8017 81.4529 98.4019C93.9581 97.3861 106.524 97.3674 119.032 98.3459C125.429 98.9136 131.825 99.4573 138.222 100.265C140.797 100.593 143.283 101.6 145.81 102.296C147.241 102.696 148.448 103.567 147.857 105.07C147.537 105.918 146.114 106.318 144.954 107.069Z" fill="#1E2125"/>
<path d="M86.778 117.759C79.5819 117.328 72.4577 116.912 65.2936 116.44C63.8384 116.352 63.2307 115.209 63.2947 113.242C63.3507 111.771 64.2302 111.355 65.4775 111.435C70.9146 111.787 76.3516 112.234 81.7967 112.506C95.1734 113.082 108.55 113.258 121.903 111.859C128.347 111.179 134.808 110.651 141.26 110.067C142.468 109.956 143.803 109.708 144.099 111.435C144.307 112.634 143.139 114.025 141.612 114.273C138.177 114.956 134.707 115.449 131.218 115.752C118.481 116.384 105.736 116.824 92.9986 117.304C90.9277 117.384 88.8648 117.304 86.7939 117.304L86.778 117.759Z" fill="#1E2125"/>
</svg>
