<svg width="96" height="96" viewBox="0 0 96 96" fill="none" xmlns="http://www.w3.org/2000/svg">
<circle cx="48" cy="48" r="48" fill="white"/>
<path d="M51.7068 45.4157C51.9617 45.1608 52.0892 44.9059 52.0892 44.651C52.0892 44.3961 51.9617 44.0138 51.7068 43.8864C51.3245 43.504 50.5598 43.504 50.1775 43.8864C49.9226 44.1412 49.7952 44.3961 49.7952 44.651C49.7952 44.9059 49.9226 45.2882 50.1775 45.4157C50.4324 45.6706 50.6873 45.798 50.9422 45.798C51.1971 45.798 51.452 45.6706 51.7068 45.4157Z" fill="#262262"/>
<path d="M37.5606 56.5034C37.1783 56.8858 37.1783 57.6504 37.5606 58.0328C37.8155 58.2876 38.0704 58.4151 38.3253 58.4151C38.9625 58.4151 39.4723 57.9053 39.4723 57.2681C39.4723 57.0132 39.3448 56.6309 39.0899 56.5034C38.7076 55.9936 37.9429 55.9936 37.5606 56.5034Z" fill="#262262"/>
<path d="M54.1284 42.6122C54.3833 42.6122 54.7656 42.4847 54.893 42.2298C55.1479 41.9749 55.2754 41.72 55.2754 41.4652C55.2754 41.2103 55.1479 40.8279 54.893 40.7005C54.5107 40.3182 53.7461 40.1907 53.3637 40.7005C53.1088 40.9554 52.9814 41.2103 52.9814 41.4652C52.9814 41.72 53.1088 42.1024 53.3637 42.2298C53.4912 42.4847 53.746 42.6122 54.1284 42.6122Z" fill="#262262"/>
<path d="M43.8054 50.131C43.5505 50.3859 43.4231 50.6408 43.4231 50.8957C43.4231 51.5329 43.9329 52.0427 44.5701 52.0427C45.2073 52.0427 45.7171 51.5329 45.7171 50.8957C45.7171 50.6408 45.5896 50.2584 45.3348 50.131C44.9524 49.7487 44.3152 49.7487 43.8054 50.131Z" fill="#262262"/>
<path d="M28.0023 65.9342C27.7474 66.1891 27.6199 66.444 27.6199 66.6989C27.6199 67.3361 28.1297 67.8459 28.7669 67.8459C29.0218 67.8459 29.4042 67.7184 29.5316 67.4635C29.7865 67.3361 29.7865 66.9538 29.9139 66.6989C29.9139 66.444 29.7865 66.0617 29.5316 65.9342C29.1493 65.5519 28.512 65.5519 28.0023 65.9342Z" fill="#262262"/>
<path d="M66.7454 29.9948C67.0003 29.9948 67.3826 29.8674 67.51 29.6125C67.8924 29.2301 67.8924 28.4655 67.51 28.0831C67.1277 27.7008 66.3631 27.7008 65.9807 28.0831C65.5984 28.4655 65.5984 29.2301 65.9807 29.6125C66.1082 29.8674 66.3631 29.9948 66.7454 29.9948Z" fill="#262262"/>
<path d="M34.3743 59.562C34.1195 59.8169 33.992 60.0718 33.992 60.3267C33.992 60.5816 34.1195 60.9639 34.3743 61.0914C34.7567 61.4737 35.5213 61.4737 35.9037 61.0914C36.1586 60.8365 36.286 60.5816 36.286 60.3267C36.286 59.6895 35.7762 59.1797 35.139 59.1797C34.8841 59.3071 34.6292 59.4346 34.3743 59.562Z" fill="#262262"/>
<path d="M31.1885 62.7481C30.9336 63.0029 30.8062 63.2578 30.8062 63.5127C30.8062 63.7676 30.9336 64.1499 31.1885 64.2774C31.4434 64.5323 31.6983 64.6597 31.9532 64.6597C32.208 64.6597 32.5904 64.5323 32.7178 64.2774C32.9727 64.0225 33.1002 63.7676 33.1002 63.5127C33.1002 63.2578 32.9727 62.8755 32.7178 62.7481C32.3355 62.2383 31.6983 62.2383 31.1885 62.7481Z" fill="#262262"/>
<path d="M40.6192 53.3174C40.3643 53.5723 40.2368 53.8272 40.2368 54.0821C40.2368 54.3369 40.3643 54.5918 40.6192 54.8467C40.874 55.1016 41.1289 55.2291 41.3838 55.2291C41.6387 55.2291 42.021 55.1016 42.1485 54.8467C42.4034 54.5918 42.5308 54.3369 42.5308 54.0821C42.5308 53.8272 42.4034 53.4448 42.1485 53.3174C41.7662 52.8076 41.1289 52.8076 40.6192 53.3174Z" fill="#262262"/>
<path d="M58.0794 39.0436C58.4617 38.6613 58.4617 37.8966 58.0794 37.5143C57.697 37.132 56.9324 37.132 56.5501 37.5143C56.1677 37.8966 56.1677 38.6613 56.5501 39.0436C56.8049 39.2985 57.0598 39.426 57.3147 39.426C57.5696 39.426 57.8245 39.2985 58.0794 39.0436Z" fill="#262262"/>
<path d="M61.1379 35.985C61.3928 35.7301 61.5203 35.4752 61.5203 35.2204C61.5203 34.9655 61.3928 34.5831 61.1379 34.4557C60.7556 34.0734 59.9909 34.0734 59.6086 34.4557C59.3537 34.7106 59.2263 34.9655 59.2263 35.2204C59.2263 35.4752 59.3537 35.8576 59.4812 35.985C59.736 36.2399 59.9909 36.3674 60.2458 36.3674C60.6281 36.2399 61.0105 36.1125 61.1379 35.985Z" fill="#262262"/>
<path d="M64.3241 32.9263C64.579 32.6714 64.7065 32.4165 64.7065 32.1616C64.579 31.5244 64.0692 31.1421 63.432 31.1421C62.9223 31.1421 62.5399 31.6519 62.4125 32.1616C62.4125 32.4165 62.5399 32.7989 62.7948 32.9263C63.1771 33.3086 63.9418 33.3086 64.3241 32.9263Z" fill="#262262"/>
<path d="M63.5595 64.6599C64.1967 64.6599 64.7065 64.1501 64.7065 63.5128C64.7065 63.258 64.579 62.8756 64.3241 62.7482C63.9418 62.3658 63.1771 62.3658 62.7948 62.7482C62.5399 63.0031 62.4125 63.258 62.4125 63.5128C62.4125 63.7677 62.5399 64.1501 62.7948 64.2775C62.9223 64.5324 63.3046 64.6599 63.5595 64.6599Z" fill="#262262"/>
<path d="M50.9422 52.0427C51.5794 52.0427 52.0892 51.5329 52.0892 50.8957C52.0892 50.6408 51.9617 50.2584 51.7068 50.131C51.3245 49.7487 50.5598 49.7487 50.1775 50.131C49.9226 50.3859 49.7952 50.6408 49.7952 50.8957C49.7952 51.1505 49.9226 51.4054 50.1775 51.6603C50.3049 51.9152 50.6873 52.0427 50.9422 52.0427Z" fill="#262262"/>
<path d="M32.8451 31.2692C32.4627 30.8868 31.6981 30.8868 31.3157 31.2692C31.0609 31.5241 31.0609 31.7789 30.9334 32.0338C30.9334 32.2887 31.0609 32.6711 31.3157 32.7985C31.5706 33.0534 31.8255 33.1808 32.0804 33.1808C32.3353 33.1808 32.7176 33.0534 32.8451 32.7985C33.1 32.5436 33.1 32.2887 33.1 32.0338C33.1 31.6515 32.9725 31.3966 32.8451 31.2692Z" fill="#262262"/>
<path d="M28.8946 29.9948C29.1495 29.9948 29.5318 29.8674 29.6593 29.6125C30.0416 29.2301 30.0416 28.4655 29.6593 28.0831C29.2769 27.7008 28.5123 27.7008 28.1299 28.0831C27.7476 28.4655 27.7476 29.2301 28.1299 29.6125C28.2574 29.8674 28.5123 29.9948 28.8946 29.9948Z" fill="#262262"/>
<path d="M60.3733 61.4738C60.6282 61.4738 60.883 61.3463 61.1379 61.2189C61.3928 60.964 61.5203 60.7091 61.5203 60.4542C61.5203 60.1994 61.3928 59.817 61.1379 59.6896C60.7556 59.3072 59.9909 59.3072 59.6086 59.6896C59.3537 59.9445 59.3537 60.1994 59.2263 60.4542C59.2263 60.7091 59.3537 61.0915 59.6086 61.2189C59.8635 61.3463 60.1184 61.4738 60.3733 61.4738Z" fill="#262262"/>
<path d="M45.462 43.8864C45.0796 43.504 44.315 43.504 43.9326 43.8864C43.6777 44.1412 43.5503 44.3961 43.5503 44.651C43.5503 44.9059 43.6777 45.2882 43.9326 45.4157C44.1875 45.6706 44.4424 45.798 44.6973 45.798C44.9522 45.798 45.3345 45.6706 45.462 45.4157C45.7168 45.1608 45.8443 44.9059 45.8443 44.651C45.7169 44.2687 45.5894 44.0138 45.462 43.8864Z" fill="#262262"/>
<path d="M65.9807 65.9341C65.7258 66.189 65.5983 66.4439 65.5983 66.6988C65.5983 67.336 66.1081 67.8458 66.7453 67.8458C67.0002 67.8458 67.3825 67.7183 67.51 67.4634C67.7649 67.2085 67.7649 66.9536 67.7649 66.6988C67.7649 66.4439 67.6374 66.0615 67.51 65.9341C67.1277 65.4243 66.363 65.4243 65.9807 65.9341Z" fill="#262262"/>
<path d="M35.9037 34.3283C35.5213 33.9459 34.7567 33.9459 34.3743 34.3283C34.1195 34.5831 33.992 34.838 33.992 35.0929C33.992 35.3478 34.1195 35.7301 34.2469 35.8576C34.5018 36.1125 34.7567 36.2399 35.0116 36.2399C35.6488 36.2399 36.1586 35.7301 36.1586 35.0929C36.286 34.838 36.1585 34.5831 35.9037 34.3283Z" fill="#262262"/>
<path d="M42.2762 40.7005C41.8938 40.3182 41.1292 40.1907 40.7468 40.7005C40.4919 40.9554 40.3645 41.2103 40.3645 41.4652C40.3645 42.1024 40.8743 42.6122 41.5115 42.6122C41.7664 42.6122 42.1487 42.4847 42.2762 42.2298C42.531 41.9749 42.6585 41.72 42.6585 41.4652C42.5311 41.2103 42.4036 40.8279 42.2762 40.7005Z" fill="#262262"/>
<path d="M46.9915 46.9448C46.7366 47.1997 46.7366 47.4546 46.7366 47.7095C46.7366 47.9644 46.864 48.3467 46.9915 48.4742C47.2464 48.7291 47.5012 48.7291 47.7561 48.7291C48.011 48.7291 48.2659 48.6016 48.5208 48.4742C48.7757 48.3467 48.9031 47.9644 49.0306 47.7095C49.0306 47.4546 48.9031 47.0723 48.6483 46.9448C48.3934 46.6899 48.1385 46.5625 47.8836 46.5625C47.5012 46.6899 47.2464 46.8174 46.9915 46.9448Z" fill="#262262"/>
<path d="M57.187 58.4151C57.8242 58.4151 58.334 57.9053 58.334 57.2681C58.334 56.6309 57.8242 56.1211 57.187 56.1211C56.5498 56.1211 56.04 56.6309 56.04 57.2681C56.04 57.523 56.1674 57.9053 56.4223 58.0328C56.6772 58.2876 56.9321 58.4151 57.187 58.4151Z" fill="#262262"/>
<path d="M39.0899 37.5143C38.7076 37.132 37.9429 37.132 37.5606 37.5143C37.1783 37.8966 37.1783 38.6613 37.5606 39.0436C37.8155 39.2985 38.0704 39.426 38.3253 39.426C38.5802 39.426 38.9625 39.2985 39.0899 39.0436C39.5997 38.6613 39.5997 38.0241 39.0899 37.5143Z" fill="#262262"/>
<path d="M54.1284 55.2287C54.3833 55.2287 54.7656 55.1012 54.893 54.8464C55.1479 54.5915 55.1479 54.3366 55.1479 54.0817C55.1479 53.8268 55.0205 53.4445 54.893 53.317C54.5107 52.9347 53.7461 52.9347 53.3637 53.317C53.1088 53.5719 52.9814 53.8268 52.9814 54.0817C52.9814 54.3366 53.1088 54.5915 53.3637 54.8464C53.4912 55.1012 53.746 55.2287 54.1284 55.2287Z" fill="#262262"/>
<path d="M47.7563 68.3555C43.9329 68.3555 40.2371 67.2085 37.0509 65.042L30.2964 71.7965C35.2667 75.7473 41.3841 77.9139 47.7563 77.7864C54.0011 77.7864 60.1184 75.6199 65.0887 71.7965L58.3342 65.042C55.1481 67.2085 51.5796 68.3555 47.7563 68.3555Z" fill="#262262"/>
<path d="M47.7561 27.3186C51.5794 27.3186 55.1479 28.3381 58.334 30.5047L65.0885 23.7501C54.893 15.5937 40.4918 15.5937 30.4236 23.7501L37.1782 30.5047C40.2369 28.4656 43.9327 27.3186 47.7561 27.3186Z" fill="#262262"/>
<path d="M71.8431 30.3774L65.0886 37.132C67.2551 40.3181 68.4021 44.1414 68.2747 47.9648C68.2747 51.6607 67.1277 55.3565 65.0886 58.4152L71.8431 65.1698C75.7939 60.1994 77.833 54.2095 77.9605 47.8373C77.9605 41.4651 75.7939 35.3478 71.8431 30.3774Z" fill="#262262"/>
<path d="M27.2376 47.8373C27.2376 44.014 28.3846 40.3181 30.4238 37.2594L23.6692 30.5049C15.6402 40.7004 15.6402 54.9742 23.6692 65.1698L30.4238 58.4152C28.3846 55.2291 27.2376 51.5332 27.2376 47.8373Z" fill="#262262"/>
<path fill-rule="evenodd" clip-rule="evenodd" d="M72.0983 28.4656C74.6471 28.4656 76.8137 26.299 76.8137 23.7501C76.8137 21.2012 74.6471 19.0347 72.0983 19.0347C69.5494 19.0347 67.3828 21.2012 67.3828 23.7501C67.3828 26.299 69.5494 28.4656 72.0983 28.4656Z" fill="#00AEEF"/>
<path fill-rule="evenodd" clip-rule="evenodd" d="M23.4145 18.9072C20.8656 18.9072 18.699 20.9463 18.699 23.6227C18.699 26.1716 20.7382 28.3381 23.4145 28.3381C25.9634 28.3381 28.1299 26.299 28.1299 23.6227C28.1299 21.0738 25.9634 18.9072 23.4145 18.9072Z" fill="#00AEEF"/>
<path fill-rule="evenodd" clip-rule="evenodd" d="M72.0983 67.2085C69.5494 67.2085 67.3828 69.3751 67.3828 71.9239C67.3828 74.4728 69.5494 76.6394 72.0983 76.6394C74.6471 76.6394 76.8137 74.4728 76.8137 71.9239C76.8137 69.3751 74.7746 67.2085 72.0983 67.2085Z" fill="#00AEEF"/>
<path d="M23.4144 76.5119C26.0186 76.5119 28.1298 74.4008 28.1298 71.7965C28.1298 69.1922 26.0186 67.0811 23.4144 67.0811C20.8101 67.0811 18.6989 69.1922 18.6989 71.7965C18.6989 74.4008 20.8101 76.5119 23.4144 76.5119Z" fill="#00AEEF"/>
</svg>
