<svg width="96" height="96" viewBox="0 0 96 96" fill="none" xmlns="http://www.w3.org/2000/svg">
<path d="M96 48C96 74.5234 74.5234 96 48 96C21.4766 96 0 74.5234 0 48C0 21.4766 21.4766 0 48 0C74.5234 0 96 21.4766 96 48Z" fill="#48A3FF"/>
<path d="M31.3458 32.3562L24.8972 25.8516V48.0011C24.8972 53.6646 27.0841 59.3282 31.4019 63.702C40.0374 72.3375 54.1122 72.3375 62.7477 63.702L31.3458 32.3562Z" fill="white"/>
<path d="M64.6541 63.7008L71.1588 70.2054V47.9998C71.1588 42.3363 68.9719 36.6727 64.6541 32.2989C56.0186 23.6634 41.9439 23.6634 33.3083 32.2989L64.6541 63.7008Z" fill="white"/>
</svg>
