<svg width="96" height="96" viewBox="0 0 96 96" fill="none" xmlns="http://www.w3.org/2000/svg">
<path d="M48 96C74.5097 96 96 74.5097 96 48C96 21.4903 74.5097 0 48 0C21.4903 0 0 21.4903 0 48C0 74.5097 21.4903 96 48 96Z" fill="#5F2652"/>
<path d="M75.2929 60.431L50.1793 15.3878C49.9661 14.993 49.6501 14.6632 49.2648 14.4333C48.8795 14.2034 48.4392 14.082 47.9905 14.082C47.5418 14.082 47.1014 14.2034 46.7161 14.4333C46.3308 14.6632 46.0148 14.993 45.8017 15.3878L20.6977 60.431C20.0449 61.5926 20.4193 63.0998 21.5905 63.791L46.7329 78.8246C47.1307 79.051 47.5807 79.1701 48.0385 79.1701C48.4963 79.1701 48.9462 79.051 49.3441 78.8246L74.4481 63.8198C75.5617 63.0998 75.9745 61.5926 75.2929 60.431ZM56.3137 42.2774L55.6993 41.759L55.6609 41.7206C55.4654 41.5609 55.2602 41.4134 55.0465 41.279L55.0081 41.2406C54.8065 41.1062 54.5953 40.9622 54.3553 40.8278C54.3169 40.8278 54.3169 40.7894 54.2881 40.7894C54.0865 40.655 53.8465 40.5494 53.6353 40.4438C53.5969 40.4438 53.5969 40.4054 53.5681 40.4054C53.3665 40.2998 53.1265 40.2038 52.8865 40.0982C52.8481 40.0982 52.8481 40.0598 52.8193 40.0598C52.6177 39.9926 52.4065 39.887 52.2049 39.8198C51.6498 39.6119 51.0782 39.4513 50.4961 39.3398C50.0545 40.1942 49.4305 40.9526 48.7489 41.5958C49.8145 41.663 50.8417 41.9414 51.7633 42.3158C52.3084 42.5504 52.8347 42.8265 53.3377 43.1414C53.3509 43.1428 53.3637 43.1469 53.3753 43.1536C53.3869 43.1602 53.3969 43.1691 53.4049 43.1798C53.5393 43.247 53.6449 43.3526 53.7793 43.4582C53.8435 43.4938 53.9018 43.5391 53.9521 43.5926C54.0764 43.6735 54.1922 43.7668 54.2977 43.871C54.3649 43.9382 54.4321 43.9766 54.4993 44.0438C54.6049 44.1494 54.7009 44.2166 54.8065 44.3222L55.0081 44.5238L55.2865 44.8022L55.4881 45.0038C55.5608 45.1026 55.641 45.1957 55.7281 45.2822C55.7953 45.359 55.8625 45.455 55.9297 45.5222L56.1313 45.8294C56.1985 45.935 56.2657 46.0022 56.3041 46.1078L56.5057 46.415C56.5729 46.5206 56.6113 46.6166 56.6785 46.6934C56.7457 46.799 56.7841 46.895 56.8513 47.0006C56.9185 47.1062 56.9569 47.2022 57.0241 47.3078C57.0625 47.4134 57.1297 47.5094 57.1585 47.615C57.2257 47.7494 57.2641 47.8934 57.3313 47.9894C57.6195 48.6909 57.8163 49.4265 57.9169 50.1782L58.2241 51.3782C58.3585 51.8966 59.5969 56.2742 62.4673 57.7526C65.7601 59.4614 70.1089 61.5926 71.8177 62.4086L49.2577 75.9062V66.6614C49.2577 65.1926 52.1665 63.4742 53.5009 62.8982L53.5681 62.8598C53.8465 62.7254 54.1153 62.5814 54.3937 62.4182L54.4993 62.351C55.0837 62.0047 55.6335 61.6028 56.1409 61.151C56.1793 61.1126 56.2465 61.0838 56.2753 61.0166C56.3425 60.9782 56.3809 60.911 56.4481 60.8822C56.6209 60.7478 56.7553 60.575 56.9281 60.4406L56.9953 60.3734C57.1729 60.2073 57.3336 60.024 57.4753 59.8262C57.5137 59.759 57.5809 59.7206 57.6097 59.6534C57.7441 59.519 57.8497 59.3462 57.9841 59.1734C58.0225 59.135 58.0513 59.0678 58.0897 59.039L58.5025 58.4246C58.5025 58.3862 58.5409 58.3862 58.5409 58.3574C58.7137 58.079 58.8865 57.7718 59.0593 57.503C58.3777 56.6774 57.8593 55.7942 57.4465 54.9686C57.2716 55.4761 57.0532 55.9676 56.7937 56.4374C56.6881 56.639 56.5537 56.8502 56.4481 57.0518C56.4097 57.0902 56.4097 57.119 56.3809 57.119C56.2749 57.2855 56.1595 57.4457 56.0353 57.599C55.9969 57.6374 55.9681 57.7046 55.9297 57.7334C55.8232 57.8952 55.6975 58.0435 55.5553 58.175C55.5169 58.2134 55.5169 58.2422 55.4881 58.2422C54.6625 59.1638 53.6737 59.951 52.5409 60.4982L52.3393 60.6038C51.7537 60.8438 46.7233 63.1382 46.7233 66.5942V75.839L24.1153 62.3798C25.5841 61.487 29.8369 58.9526 33.3313 57.8582C34.7041 57.4166 37.6129 59.2598 39.2545 60.5942L39.3601 60.6998C39.5716 60.9125 39.7995 61.1083 40.0417 61.2854L40.1089 61.3526C40.6273 61.7654 41.1745 62.1782 41.7889 62.4854L42.2017 62.687C42.2149 62.6884 42.2277 62.6926 42.2393 62.6992C42.2509 62.7058 42.2609 62.7147 42.2689 62.7254C42.6433 62.927 43.0177 63.0998 43.4305 63.2726C43.4864 63.2992 43.5441 63.3216 43.6033 63.3398C43.6417 63.3398 43.6705 63.3782 43.7377 63.3782C44.3233 63.5798 44.8993 63.7526 45.4849 63.8966C45.9265 63.0422 46.5793 62.2838 47.2705 61.6406C46.3078 61.5752 45.36 61.3682 44.4577 61.0262C44.4193 60.9878 44.3521 60.9878 44.3233 60.959C44.2159 60.9265 44.1128 60.8814 44.0161 60.8246C43.9777 60.7862 43.9105 60.7862 43.8817 60.7574C43.7761 60.719 43.6801 60.6518 43.6033 60.623C42.9217 60.2774 42.2977 59.903 41.7217 59.423L40.8289 58.5974C40.0038 57.8722 39.1099 57.2292 38.1601 56.6774C35.9329 55.4102 34.0513 54.9974 32.6113 55.4486C29.6353 56.4086 26.2369 58.223 24.1825 59.423L46.7521 18.8726V36.6518C46.7521 37.2662 45.8305 38.9078 42.7105 40.319L42.5089 40.4246C42.2017 40.559 41.9233 40.7318 41.6161 40.9046L41.5489 40.943C40.9583 41.2984 40.3965 41.6996 39.8689 42.143C39.5364 42.4134 39.2281 42.7122 38.9473 43.0358L38.9089 43.0742C38.6054 43.3688 38.3291 43.6901 38.0833 44.0342L38.0449 44.0726C37.9105 44.2454 37.8049 44.4182 37.6705 44.591C37.6705 44.6294 37.6321 44.6294 37.6321 44.6582C37.5265 44.831 37.4305 44.9654 37.3249 45.1382C37.3249 45.1766 37.2865 45.1766 37.2865 45.2054L36.9793 45.7238C36.9409 45.7622 36.9409 45.791 36.9121 45.8582C36.8065 46.031 36.7393 46.2038 36.6721 46.3382C36.6707 46.3515 36.6665 46.3643 36.6599 46.3759C36.6533 46.3874 36.6444 46.3975 36.6337 46.4054C36.5665 46.5782 36.4993 46.7126 36.4321 46.8854C36.4055 46.9413 36.3831 46.9991 36.3649 47.0582L36.1633 47.5766C36.1367 47.6325 36.1143 47.6903 36.0961 47.7494C36.0641 47.8785 36.0191 48.0039 35.9617 48.1238C35.9233 48.191 35.9233 48.2582 35.8945 48.3254C35.8561 48.4982 35.7889 48.671 35.7601 48.8054C35.7217 48.8726 35.7217 48.9782 35.6929 49.0454C35.6545 49.151 35.6545 49.2854 35.6257 49.391C35.5873 49.4966 35.5873 49.5926 35.5585 49.6982C35.5201 49.8326 35.5201 49.9766 35.4913 50.111C35.4913 50.2166 35.4529 50.2838 35.4529 50.3894C35.4529 50.5238 35.4145 50.6294 35.4145 50.7638C35.4207 50.8899 35.4078 51.0161 35.3761 51.1382V51.6566C35.372 52.2768 35.4169 52.8963 35.5105 53.5094C36.4033 53.711 37.3249 54.095 38.3233 54.575C38.0449 53.6822 37.9105 52.7606 37.8817 51.8006V51.6278C37.8753 51.4 37.8881 51.172 37.9201 50.9462V50.7734C37.9201 50.5718 37.9585 50.399 37.9873 50.1878V50.1206C38.0257 49.919 38.0545 49.7078 38.0929 49.4678C38.0929 49.4006 38.1313 49.3622 38.1313 49.295C38.1697 49.1222 38.2369 48.9494 38.2657 48.7766C38.2657 48.7382 38.3041 48.7094 38.3041 48.671L38.5057 48.0566C38.5441 48.0182 38.5441 47.951 38.5729 47.9222C38.6401 47.7494 38.7073 47.5766 38.7745 47.4422C38.8129 47.4038 38.8129 47.375 38.8417 47.3078C38.9473 47.1062 39.0145 46.9334 39.1489 46.7606C39.1746 46.7277 39.1971 46.6923 39.2161 46.655C39.3217 46.4822 39.3889 46.3478 39.4945 46.175C39.5202 46.1421 39.5427 46.1067 39.5617 46.0694C39.6769 45.8899 39.8019 45.7169 39.9361 45.551C39.9359 45.546 39.9368 45.5409 39.9387 45.5362C39.9406 45.5315 39.9434 45.5272 39.947 45.5236C39.9506 45.52 39.9549 45.5172 39.9596 45.5153C39.9643 45.5134 39.9694 45.5125 39.9745 45.5126C40.1089 45.3398 40.2145 45.2054 40.3489 45.0326C40.3746 44.9997 40.3971 44.9643 40.4161 44.927C41.0341 44.2444 41.7375 43.6443 42.5089 43.1414L43.5745 42.623C44.1601 42.383 49.1617 40.0214 49.1617 36.5558V18.8438L71.9425 59.7398C69.9169 58.751 66.3265 56.9654 63.5521 55.5254C61.9393 54.6998 60.8833 51.791 60.5761 50.7254L60.2689 49.4966C60.2689 48.8438 60.0961 48.191 59.8945 47.5478C59.1712 45.5137 57.9383 43.6992 56.3137 42.2774Z" fill="white"/>
</svg>
