<svg width="96" height="96" viewBox="0 0 96 96" fill="none" xmlns="http://www.w3.org/2000/svg">
<g clip-path="url(#clip0)">
<path d="M48.0048 96.0096C74.5172 96.0096 96.0096 74.5172 96.0096 48.0048C96.0096 21.4925 74.5172 0 48.0048 0C21.4925 0 0 21.4925 0 48.0048C0 74.5172 21.4925 96.0096 48.0048 96.0096Z" fill="#FBFCFD"/>
<path d="M84.317 46.6453L74.2244 46.8863C74.1931 46.876 74.1593 46.876 74.128 46.8863C74.0863 46.8818 74.0443 46.8818 74.0027 46.8863H73.9063L73.7328 46.973H73.6653L73.4918 47.0984L64.0354 54.9064L49.9135 46.8477V39.2132L63.9101 40.4856H64.045C64.1024 40.4957 64.1612 40.4957 64.2186 40.4856H64.286C64.3627 40.4734 64.4373 40.4507 64.5077 40.4182H64.5656H64.6812L71.4289 36.5624L82.524 41.3821C82.6852 41.4538 82.8591 41.4926 83.0354 41.4965C83.2118 41.5003 83.3872 41.469 83.5513 41.4044C83.7155 41.3398 83.8652 41.2432 83.9916 41.1202C84.1181 40.9973 84.2189 40.8504 84.288 40.6881C84.3599 40.5262 84.3989 40.3516 84.4028 40.1746C84.4068 39.9975 84.3756 39.8214 84.311 39.6564C84.2465 39.4915 84.1499 39.341 84.0268 39.2136C83.9037 39.0863 83.7566 38.9846 83.594 38.9144L74.3593 34.9333L80.0563 31.6751C80.3356 31.483 80.5323 31.1928 80.6075 30.8623C80.6826 30.5317 80.6306 30.185 80.4617 29.8911C80.2929 29.5971 80.0196 29.3775 79.6962 29.2758C79.3729 29.1741 79.0231 29.1979 78.7164 29.3424L64.9897 37.054L63.1968 27.2024L74.3015 24.9467C74.6355 24.8617 74.924 24.6513 75.1068 24.3592C75.2897 24.067 75.353 23.7156 75.2835 23.378C75.214 23.0404 75.0171 22.7426 74.7336 22.5464C74.4502 22.3503 74.1021 22.2709 73.7617 22.3248L64.3246 24.2527L67.9683 18.0545C68.1498 17.749 68.2026 17.3839 68.1149 17.0395C68.0272 16.6951 67.8063 16.3997 67.5008 16.2181C67.1953 16.0366 66.8302 15.9839 66.4858 16.0716C66.1414 16.1593 65.846 16.3801 65.6645 16.6857L60.7869 25.0046C60.7337 25.0819 60.6915 25.1662 60.6616 25.2552C60.5234 25.4048 60.4225 25.585 60.3673 25.781C60.312 25.977 60.3038 26.1833 60.3435 26.383L62.4063 37.6613L49.9231 36.5045V22.1705L58.8011 14.8156C59.0484 14.5809 59.1977 14.2613 59.219 13.921C59.2403 13.5808 59.132 13.2451 58.9159 12.9814C58.6998 12.7177 58.392 12.5456 58.0542 12.4996C57.7164 12.4536 57.3737 12.5371 57.0949 12.7335L49.8942 18.6521V12.531C49.855 12.2058 49.698 11.9062 49.4529 11.6889C49.2078 11.4716 48.8915 11.3516 48.564 11.3516C48.2364 11.3516 47.9202 11.4716 47.675 11.6889C47.4299 11.9062 47.2729 12.2058 47.2337 12.531V27.7133L38.0087 24.7636L41.0066 14.1601C41.105 13.8175 41.0633 13.4499 40.8907 13.138C40.718 12.8262 40.4286 12.5957 40.086 12.4973C39.7434 12.3989 39.3758 12.4406 39.0639 12.6132C38.7521 12.7858 38.5216 13.0753 38.4232 13.4179L35.8591 22.4983L31.8105 16.5603C31.7117 16.4141 31.5852 16.2888 31.438 16.1915C31.2908 16.0942 31.1259 16.0269 30.9527 15.9933C30.7795 15.9597 30.6014 15.9606 30.4285 15.9959C30.2557 16.0311 30.0914 16.1001 29.9452 16.1989C29.799 16.2976 29.6737 16.4242 29.5764 16.5713C29.4791 16.7185 29.4118 16.8834 29.3782 17.0566C29.3446 17.2298 29.3455 17.4079 29.3808 17.5808C29.416 17.7537 29.485 17.9179 29.5837 18.0641L35.2132 26.383C35.2132 26.383 35.2132 26.383 35.2132 26.4505L35.2807 26.5373C35.3103 26.5765 35.3504 26.6066 35.3964 26.624C35.4147 26.6537 35.4416 26.6773 35.4735 26.6915L35.6181 26.7879H35.6856L35.8784 26.8746L47.2337 30.5184V46.8477L40.3222 50.8385L34.4324 38.4035C34.3805 38.3024 34.3157 38.2085 34.2396 38.124C34.1596 38.0483 34.0724 37.9805 33.9794 37.9215L27.2317 34.0657L25.6123 21.9585C25.5443 21.625 25.3528 21.3296 25.0762 21.1313C24.7997 20.9331 24.4584 20.8466 24.1208 20.8893C23.7832 20.9319 23.4741 21.1006 23.2556 21.3614C23.037 21.6222 22.925 21.956 22.9421 22.2959L24.2049 32.2728L18.5079 29.0146C18.3543 28.9089 18.1805 28.8363 17.9974 28.8011C17.8143 28.766 17.6259 28.7692 17.4441 28.8105C17.2623 28.8519 17.091 28.9304 16.9411 29.0412C16.7911 29.152 16.6658 29.2927 16.5729 29.4544C16.4801 29.616 16.4217 29.7952 16.4015 29.9805C16.3814 30.1659 16.3998 30.3534 16.4557 30.5313C16.5117 30.7091 16.6038 30.8735 16.7264 31.0139C16.849 31.1544 16.9994 31.2679 17.168 31.3474L30.8947 39.2036L23.3181 45.7585L15.751 37.3239C15.512 37.0606 15.1781 36.903 14.8229 36.8858C14.4677 36.8686 14.1202 36.9933 13.8569 37.2323C13.5935 37.4713 13.436 37.8052 13.4188 38.1604C13.4016 38.5156 13.5263 38.8631 13.7653 39.1265L20.2431 46.2694H13.0134C12.6764 46.2979 12.3624 46.452 12.1336 46.701C11.9048 46.95 11.7778 47.2759 11.7778 47.6141C11.7778 47.9523 11.9048 48.2781 12.1336 48.5272C12.3624 48.7762 12.6764 48.9302 13.0134 48.9588H22.6529H22.9325C23.1382 49.0009 23.351 48.994 23.5536 48.9388C23.7562 48.8835 23.943 48.7814 24.0989 48.6407L32.7744 41.1508L37.9991 52.1977L25.0628 59.6683L15.3269 55.022C15.1671 54.9383 14.9919 54.8878 14.8121 54.8734C14.6322 54.859 14.4513 54.8811 14.2802 54.9383C14.1091 54.9956 13.9513 55.0868 13.8163 55.2065C13.6813 55.3262 13.5718 55.472 13.4945 55.635C13.4172 55.798 13.3737 55.975 13.3664 56.1553C13.3592 56.3356 13.3885 56.5155 13.4524 56.6842C13.5164 56.8529 13.6139 57.007 13.7388 57.1371C13.8638 57.2672 14.0138 57.3708 14.1798 57.4416L22.1999 61.2974L17.168 64.1892C16.9937 64.265 16.8374 64.3768 16.7093 64.5172C16.5811 64.6575 16.4841 64.8234 16.4246 65.0039C16.365 65.1844 16.3442 65.3755 16.3636 65.5645C16.383 65.7536 16.4421 65.9365 16.5371 66.1011C16.632 66.2658 16.7607 66.4085 16.9147 66.52C17.0686 66.6314 17.2444 66.7091 17.4304 66.7479C17.6165 66.7868 17.8087 66.7859 17.9944 66.7453C18.18 66.7047 18.3551 66.6253 18.5079 66.5124L25.7665 62.3288L32.0322 58.7043L33.3624 68.4403L22.4794 70.3682C22.3011 70.3918 22.1294 70.4511 21.9745 70.5425C21.8197 70.6339 21.6848 70.7556 21.5779 70.9002C21.471 71.0449 21.3943 71.2096 21.3525 71.3845C21.3106 71.5594 21.3044 71.7409 21.3341 71.9183C21.3639 72.0956 21.4291 72.2652 21.5258 72.4168C21.6225 72.5685 21.7487 72.6991 21.897 72.8009C22.0452 72.9027 22.2125 72.9737 22.3887 73.0095C22.565 73.0453 22.7466 73.0453 22.9228 73.0094L32.2539 71.4285L28.6198 77.6074C28.5299 77.7587 28.4707 77.9262 28.4456 78.1004C28.4204 78.2745 28.4298 78.4519 28.4732 78.6224C28.5167 78.793 28.5932 78.9533 28.6986 79.0942C28.804 79.2351 28.936 79.3539 29.0873 79.4438C29.2386 79.5337 29.4061 79.5928 29.5802 79.618C29.7544 79.6431 29.9318 79.6337 30.1023 79.5903C30.2728 79.5469 30.4331 79.4703 30.574 79.365C30.715 79.2596 30.8338 79.1275 30.9236 78.9763L36.0229 70.3007C36.0229 70.3007 36.0229 70.2429 36.0229 70.2332C36.0246 70.2011 36.0246 70.1689 36.0229 70.1368V70.0019C36.0273 69.9667 36.0273 69.931 36.0229 69.8958C36.019 69.8348 36.019 69.7737 36.0229 69.7127V69.6452C36.0324 69.5716 36.0324 69.4971 36.0229 69.4235L34.3746 57.2777L48.5543 49.1612L54.338 52.535L46.6264 64.3435C46.6302 64.3658 46.6302 64.3886 46.6264 64.4109C46.5958 64.4618 46.573 64.5171 46.5589 64.5748C46.5589 64.6616 46.5589 64.7387 46.5011 64.8158V64.8736C46.4963 64.9185 46.4963 64.9637 46.5011 65.0086L46.7614 72.7877L37.305 80.4318C37.0276 80.6555 36.8505 80.9803 36.8125 81.3346C36.7745 81.6889 36.8789 82.0438 37.1026 82.3212C37.3263 82.5986 37.651 82.7757 38.0053 82.8137C38.3596 82.8516 38.7145 82.7473 38.9919 82.5236L46.8385 76.2194L47.0506 82.7935C47.0872 83.1309 47.2496 83.4421 47.5054 83.665C47.7612 83.888 48.0917 84.0065 48.4309 83.9967C48.7701 83.987 49.0932 83.8498 49.3358 83.6126C49.5784 83.3753 49.7227 83.0553 49.74 82.7164L49.2291 66.9076L58.8011 69.9247L55.5719 80.7788C55.4722 81.1201 55.5121 81.4871 55.683 81.7989C55.8538 82.1108 56.1415 82.342 56.4828 82.4417C56.8241 82.5414 57.1911 82.5014 57.5029 82.3306C57.8147 82.1597 58.0459 81.872 58.1457 81.5307L60.864 72.2961L64.6331 78.4172C64.7249 78.5684 64.8458 78.6999 64.9888 78.8042C65.1318 78.9084 65.294 78.9833 65.466 79.0246C65.6381 79.0658 65.8166 79.0725 65.9913 79.0444C66.166 79.0162 66.3334 78.9538 66.4838 78.8606C66.7873 78.6733 67.0043 78.3735 67.0873 78.0267C67.1704 77.6799 67.1129 77.3143 66.9273 77.0098L61.8569 68.7776C61.8068 68.7009 61.7487 68.6298 61.6834 68.5656C61.6132 68.3737 61.5004 68.2003 61.3535 68.0583C61.2065 67.9164 61.0293 67.8097 60.8351 67.7462L49.9135 64.3049L56.719 53.8557L70.6963 61.9432L71.5349 73.1636C71.5482 73.3402 71.5962 73.5125 71.676 73.6705C71.7559 73.8286 71.8661 73.9694 72.0004 74.0848C72.1346 74.2003 72.2903 74.2882 72.4586 74.3435C72.6268 74.3988 72.8043 74.4204 72.9809 74.4071C73.1575 74.3938 73.3297 74.3459 73.4878 74.266C73.6458 74.1862 73.7866 74.076 73.9021 73.9417C74.0176 73.8074 74.1054 73.6517 74.1607 73.4835C74.216 73.3153 74.2377 73.1378 74.2244 72.9612L73.5111 63.5627L78.514 66.4545C78.8198 66.604 79.1709 66.6323 79.4968 66.5339C79.8227 66.4354 80.0994 66.2174 80.2713 65.9235C80.4432 65.6297 80.4977 65.2817 80.4239 64.9493C80.3501 64.617 80.1533 64.3248 79.8731 64.1314L72.6339 59.9575L66.5128 56.3909L74.2244 50.048L81.5408 58.3188C81.6542 58.4589 81.7948 58.5746 81.9541 58.6591C82.1133 58.7436 82.288 58.7951 82.4677 58.8105C82.6473 58.8259 82.8282 58.8048 82.9995 58.7486C83.1708 58.6925 83.329 58.6023 83.4647 58.4835C83.6003 58.3648 83.7106 58.2198 83.7889 58.0575C83.8672 57.8951 83.9119 57.7185 83.9204 57.5384C83.9289 57.3584 83.9009 57.1784 83.8382 57.0094C83.7755 56.8403 83.6793 56.6857 83.5554 56.5547L77.2897 49.4697L84.4519 49.2962C84.6353 49.3055 84.8187 49.2768 84.9905 49.2118C85.1622 49.1468 85.3187 49.0469 85.45 48.9185C85.5812 48.7901 85.6845 48.6358 85.7532 48.4655C85.822 48.2952 85.8547 48.1125 85.8494 47.929C85.844 47.7454 85.8007 47.5649 85.7222 47.3989C85.6437 47.2329 85.5316 47.0849 85.3931 46.9643C85.2546 46.8437 85.0926 46.7531 84.9173 46.6982C84.7421 46.6433 84.5574 46.6253 84.3748 46.6453H84.317Z" fill="#1AEEC2"/>
</g>
<defs>
<clipPath id="clip0">
<rect width="96" height="96" fill="white"/>
</clipPath>
</defs>
</svg>
