<svg width="96" height="96" viewBox="0 0 96 96" fill="none" xmlns="http://www.w3.org/2000/svg">
<path d="M48 96C74.5097 96 96 74.5097 96 48C96 21.4903 74.5097 0 48 0C21.4904 0 0 21.4903 0 48C0 74.5097 21.4904 96 48 96Z" fill="#2A5ADA"/>
<path d="M48.1868 12.7002L41.6499 16.4356L24.0934 26.5212L17.5565 30.2566V65.3695L24.0934 69.1049L41.8366 79.1905L48.3736 82.9259L54.9105 79.1905L72.2802 69.1049L78.8172 65.3695V30.2566L72.2802 26.5212L54.7238 16.4356L48.1868 12.7002ZM30.6304 58.0854V37.7274L48.1868 27.6418L65.7433 37.7274V58.0854L48.1868 68.171L30.6304 58.0854Z" fill="white"/>
</svg>
