<svg width="96" height="96" viewBox="0 0 96 96" fill="none" xmlns="http://www.w3.org/2000/svg">
<path d="M48.21 95.9995C57.6944 95.958 66.954 93.1077 74.8199 87.8082C82.6858 82.5087 88.8054 74.9977 92.4062 66.2233C96.007 57.4489 96.9277 47.8044 95.0519 38.5072C93.1762 29.2099 88.5881 20.6768 81.8669 13.9849C75.1457 7.29296 66.5927 2.74222 57.2873 0.907084C47.982 -0.92805 38.3416 0.0346938 29.583 3.67379C20.8244 7.31288 13.3402 13.4652 8.0751 21.3541C2.81002 29.2431 9.07726e-05 38.515 2.19841e-09 47.9995C-6.04935e-05 54.3207 1.24842 60.5796 3.67377 66.417C6.09911 72.2543 9.65356 77.5552 14.133 82.0151C18.6125 86.4751 23.9288 90.0064 29.7767 92.4062C35.6246 94.806 41.8889 96.0272 48.21 95.9995Z" fill="#5C90E8"/>
<path d="M63.15 57.865C63.1744 59.753 62.7638 61.6213 61.95 63.325C61.1258 64.9891 59.9605 66.461 58.53 67.645C56.9465 68.9006 55.147 69.8563 53.22 70.465C50.995 71.1484 48.6774 71.4823 46.35 71.455C43.9302 71.4611 41.5166 71.2097 39.15 70.705C36.9016 70.2046 34.7175 69.4498 32.64 68.455L34.59 61.255C36.3422 62.0559 38.1586 62.7082 40.02 63.205C42.034 63.7499 44.1138 64.0124 46.2 63.985C48.1215 64.0696 50.0269 63.6011 51.69 62.635C52.3369 62.1927 52.8572 61.5892 53.1992 60.8841C53.5412 60.179 53.6931 59.3969 53.64 58.615C53.6538 57.841 53.4778 57.0754 53.1275 56.3851C52.7771 55.6948 52.2629 55.1008 51.63 54.655C49.7139 53.3028 47.6253 52.2131 45.42 51.415C43.6043 50.6971 41.8401 49.8551 40.14 48.895C38.7188 48.0902 37.4248 47.0792 36.3 45.895C35.2758 44.8607 34.4609 43.6383 33.9 42.295C33.3145 40.879 33.0285 39.357 33.06 37.825C32.9595 36.0179 33.2908 34.2128 34.0263 32.5591C34.7619 30.9054 35.8806 29.4506 37.29 28.315C40.5595 25.9495 44.5401 24.7744 48.57 24.985C50.8173 24.9637 53.0603 25.185 55.26 25.645C57.3422 26.1123 59.3578 26.838 61.26 27.805L59.49 35.005C57.8735 34.2654 56.1976 33.6633 54.48 33.205C52.7467 32.7494 50.9622 32.5175 49.17 32.515C47.508 32.437 45.8568 32.8212 44.4 33.625C43.8075 33.9765 43.3233 34.4844 43.0005 35.093C42.6776 35.7016 42.5287 36.3874 42.57 37.075C42.5622 37.7175 42.6637 38.3566 42.87 38.965C43.1131 39.556 43.4937 40.0805 43.98 40.495C44.6399 41.0366 45.3537 41.5091 46.11 41.905C46.98 42.355 48.09 42.895 49.44 43.465C50.79 44.035 52.98 45.055 54.63 45.895C56.1981 46.7119 57.6592 47.7196 58.98 48.895C60.208 50.0026 61.2245 51.324 61.98 52.795C62.7662 54.3685 63.1672 56.1062 63.15 57.865Z" fill="white"/>
<path d="M29.76 51.9609V48.9609H67.5V51.9609H29.76Z" fill="white"/>
<path d="M29.76 47.1602V44.1602H67.5V47.1602H29.76Z" fill="white"/>
</svg>
