<svg width="97" height="96" viewBox="0 0 97 96" fill="none" xmlns="http://www.w3.org/2000/svg">
<path d="M48.5 96C74.9923 96 96.5 74.4951 96.5 48.0063C96.5 21.5175 75.0048 0 48.5 0C21.9952 0 0.5 21.5049 0.5 47.9937C0.5 74.4825 22.0077 96 48.5 96Z" fill="#437FF0"/>
<path d="M55.1207 83.5195C50.0711 83.5195 46.3906 82.3414 44.0794 79.9102C41.7681 77.4789 40.6502 74.9349 40.6502 72.1277C40.6502 71.1377 40.8386 70.2604 41.2782 69.5711C41.6551 68.8819 42.2078 68.3304 42.8986 67.9545C43.5895 67.5785 44.4562 67.3279 45.4611 67.3279C46.466 67.3279 47.3327 67.5159 48.0236 67.9545C48.7145 68.3304 49.2672 68.8819 49.644 69.5711C50.0208 70.2604 50.2721 71.1251 50.2721 72.1277C50.2721 73.3684 49.958 74.371 49.3928 75.1104C48.8275 75.8623 48.0864 76.4137 47.2699 76.6643C47.9608 77.5917 49.0787 78.281 50.5735 78.7196C52.0683 79.1582 53.5631 79.3462 55.0704 79.3462C57.1933 79.3462 59.0649 78.7823 60.7481 77.6669C62.4313 76.5516 63.6748 74.8722 64.4913 72.6916C65.3078 70.511 65.6721 68.0297 65.6721 65.2225C65.6721 62.1771 65.2324 59.6206 64.3657 57.5026C63.4864 55.322 62.2429 53.7054 60.5597 52.7153C58.8765 51.6626 57.0676 51.1613 55.0704 51.1613C53.7641 51.1613 52.2065 51.7253 50.2721 52.778L46.7549 54.4573V52.7153L62.6574 31.561H40.6502V53.5299C40.6502 55.3346 41.027 56.8259 41.8309 58.0165C42.6474 59.1945 43.891 59.7584 45.5114 59.7584C46.8177 59.7584 48.011 59.3198 49.1918 58.4551C50.3725 57.5778 51.3774 56.5251 52.2442 55.3471C52.3698 55.0965 52.4954 54.9085 52.621 54.8458C52.8094 54.7205 52.935 54.6578 53.1234 54.6578C53.4375 54.6578 53.7515 54.7831 54.1786 55.0965C54.5554 55.5351 54.7438 56.0238 54.7438 56.5878C54.7438 56.8384 54.6182 57.2144 54.5554 57.7031C53.6761 59.7584 52.4326 61.3124 50.8122 62.3651C49.1918 63.4178 47.4458 63.9818 45.5114 63.9818C40.713 63.9818 37.4596 63.0544 35.588 61.1871C33.7792 59.3198 32.8497 56.7632 32.8497 53.5926V31.561H21.62V27.4504H32.9125V18.114L30.35 15.5574V13.4395H37.8365L40.6376 14.8681V27.3878L69.767 27.3251L72.631 30.1825L54.8066 48.0534C55.8618 47.6147 56.9923 47.3641 58.173 47.2388C60.1075 47.2388 62.2931 47.8654 64.6546 49.1061C67.0915 50.2841 68.9631 51.9634 70.2695 54.0813C71.5758 56.1993 72.4551 58.1919 72.8319 60.1219C73.2088 62.0518 73.46 63.7311 73.46 65.2851C73.46 68.7064 72.7063 71.8771 71.2743 74.8096C69.8424 77.7296 67.6567 79.9728 64.6672 81.4015C61.7279 82.8302 58.5499 83.5195 55.1207 83.5195Z" fill="white"/>
</svg>
