<svg width="96" height="99" viewBox="0 0 96 99" fill="none" xmlns="http://www.w3.org/2000/svg">
<ellipse cx="48" cy="49.4408" rx="45.12" ry="45.8314" fill="white"/>
<path d="M48 0.683594C21.5297 0.683594 0 22.5528 0 49.4404C0 76.3281 21.5297 98.1973 48 98.1973C74.4703 98.1973 96 76.3281 96 49.4404C96 22.5528 74.4703 0.683594 48 0.683594ZM48 90.1504C25.8953 90.1504 7.92192 71.8937 7.92192 49.4404C7.92192 26.9872 25.8953 8.73042 48 8.73042C70.1047 8.73042 88.0781 26.9872 88.0781 49.4404C88.0781 71.8937 70.1047 90.1504 48 90.1504Z" fill="#231F20"/>
<path d="M48 87.8576C68.8879 87.8576 85.8208 70.6577 85.8208 49.4405C85.8208 28.2234 68.8879 11.0234 48 11.0234C27.1122 11.0234 10.1793 28.2234 10.1793 49.4405C10.1793 70.6577 27.1122 87.8576 48 87.8576Z" fill="#F4B728"/>
<path d="M30.8784 64.6031V72.0443H43.9752V80.1993H52.0249V72.0443H65.1216V62.2021H44.8057L65.1216 34.2112V26.7701H52.0249V18.6367H43.9752V26.7701H30.8784V36.6339H51.1943L30.8784 64.6031Z" fill="#231F20"/>
</svg>
