<svg width="96" height="96" viewBox="0 0 96 96" fill="none" xmlns="http://www.w3.org/2000/svg">
<path d="M48 96C74.5097 96 96 74.5097 96 48C96 21.4903 74.5097 0 48 0C21.4903 0 0 21.4903 0 48C0 74.5097 21.4903 96 48 96Z" fill="white"/>
<path d="M68.4702 24H76.8536L59.412 41.2613C53.0983 47.5098 42.862 47.5098 36.5484 41.2613L19.1069 24H27.4902L40.74 37.1131C44.7386 41.0703 51.2216 41.0703 55.2203 37.1131L68.4702 24Z" fill="#23292F"/>
<path d="M27.3833 71.9996H19L36.5493 54.6316C42.8629 48.3832 53.0992 48.3832 59.4129 54.6316L76.9623 71.9996H68.5789L55.2211 58.7799C51.2225 54.8225 44.7395 54.8225 40.7409 58.7799L27.3833 71.9996Z" fill="#23292F"/>
</svg>
