<svg width="101" height="100" viewBox="0 0 101 100" fill="none" xmlns="http://www.w3.org/2000/svg">
<path d="M51 94C75.3005 94 95 74.3005 95 50C95 25.6995 75.3005 6 51 6C26.6995 6 7 25.6995 7 50C7 74.3005 26.6995 94 51 94Z" fill="#666666"/>
<path d="M50 0C22.379 0 0 22.379 0 50C0 77.621 22.379 100 50 100C77.621 100 100 77.621 100 50C99.9664 22.379 77.5874 0 50 0ZM50.8064 51.6465L45.5981 69.1868H73.4207C74.1936 69.1868 74.832 69.8253 74.832 70.6317C74.832 70.7661 74.7984 70.9005 74.7648 71.0349L72.3454 79.3683C72.1102 80.1747 71.371 80.746 70.4973 80.746H28.0242L35.2151 56.4852L27.2849 58.9046L29.0323 53.2258L36.996 50.8064L47.0766 16.7339C47.3118 15.9274 48.0511 15.3562 48.8911 15.3562H59.6438C60.4167 15.3562 61.0887 15.9946 61.0887 16.7675C61.0887 16.9019 61.0551 17.0363 61.0215 17.1707L52.5538 45.9677L60.4839 43.5484L58.7702 49.328L50.8064 51.6465Z" fill="white"/>
</svg>
