<svg width="96" height="96" viewBox="0 0 96 96" fill="none" xmlns="http://www.w3.org/2000/svg">
<path d="M48 96C74.5096 96 96 74.5097 96 48C96 21.4903 74.5096 0 48 0C21.4903 0 0 21.4903 0 48C0 74.5097 21.4903 96 48 96Z" fill="white"/>
<path fill-rule="evenodd" clip-rule="evenodd" d="M30.7797 20.9167C32.1999 19.2311 33.145 18.2502 34.8629 16.656C13.4734 15.9477 19.5954 31.5666 12.584 47.3648C4.59697 65.5588 13.7388 72.5685 27.0516 74.6988C25.2458 72.3013 23.5907 69.9952 22.4359 67.2444C14.0167 55.9741 17.2893 36.2702 30.7797 20.9167Z" fill="#B3D234"/>
<path fill-rule="evenodd" clip-rule="evenodd" d="M82.2378 40.3477C80.1128 46.0716 76.824 51.835 71.4103 58.5416C67.1783 63.3743 60.6385 68.537 58.3647 69.9895C53.0406 73.4504 46.3842 75.4911 39.0177 75.4911C34.8467 75.4911 30.7797 75.2293 27.0516 74.6967C29.2698 77.3596 31.9184 79.4846 35.0242 80.9927C54.3712 90.3999 55.5242 72.916 76.0261 64.0414C87.4739 59.0742 87.5636 49.3119 82.2378 40.3477Z" fill="#0095D9"/>
<path fill-rule="evenodd" clip-rule="evenodd" d="M58.2912 22.1595C61.1316 22.6921 63.8824 23.6676 66.2781 24.9999C72.757 28.728 78.5975 34.3534 82.2521 40.3534C85.713 30.5015 84.1153 22.6921 76.4833 21.2719C68.1413 19.7638 61.5745 19.2312 55.2732 14.793C47.5516 9.37925 40.7177 11.1545 34.861 16.6561C35.2932 16.6956 35.6249 16.7081 36.1037 16.744C44.2682 17.1905 52.0795 18.7882 58.2912 22.1595Z" fill="#EEE809"/>
<path fill-rule="evenodd" clip-rule="evenodd" d="M30.7797 20.9171C17.2894 36.2706 13.8285 56.238 22.4377 67.243C18.5321 58.0133 18.7993 46.5654 24.3008 37.4236C31.6674 25.2656 46.2211 19.9398 58.2912 22.1598C52.067 18.8136 44.3059 17.1746 36.1038 16.7461C35.6447 16.7138 35.2341 16.6959 34.8611 16.6582C33.5305 17.8112 32.2 19.2315 30.7797 20.9171Z" fill="#51B849"/>
<path fill-rule="evenodd" clip-rule="evenodd" d="M66.2782 25.0006C63.8824 23.5804 61.1317 22.6927 58.2912 22.1602C66.4557 26.5087 71.9591 33.8752 71.8694 45.5006C71.7816 55.618 66.6332 64.4926 58.2912 69.9959C62.9069 67.2452 67.3433 63.3395 71.4265 58.5481C76.573 52.3364 80.2133 45.9454 82.2539 40.3541C78.6137 34.3199 72.7571 28.639 66.2782 25.0006Z" fill="#00845D"/>
<path fill-rule="evenodd" clip-rule="evenodd" d="M56.9607 64.4041C47.731 70.3504 35.3955 67.6875 29.4492 58.4578C23.5028 49.2281 26.3433 37.2476 35.3058 30.7687C45.3334 23.5798 58.2034 26.4202 62.8173 36.715C67.433 46.8324 66.1903 58.4578 56.9607 64.4041ZM58.2912 22.1595C46.3108 19.9413 31.5777 25.2654 24.3008 37.4252C18.7992 46.567 18.4012 57.9826 22.4377 67.2445C23.5907 69.9953 25.1885 72.4807 27.0534 74.6989C30.7815 75.3194 34.8629 75.4969 39.0339 75.4969C46.4004 75.4969 53.0568 73.4562 58.3809 69.9953C66.7229 64.5816 71.8712 55.6173 71.9591 45.5C71.9591 33.7867 66.4557 26.5081 58.2912 22.1595Z" fill="#005121"/>
</svg>
