<svg width="96" height="96" viewBox="0 0 96 96" fill="none" xmlns="http://www.w3.org/2000/svg">
<path d="M48 96C74.5097 96 96 74.5097 96 48C96 21.4903 74.5097 0 48 0C21.4904 0 0 21.4903 0 48C0 74.5097 21.4904 96 48 96Z" fill="white"/>
<path d="M67.4241 60.3252C70.0389 63.6871 72.6537 67.2357 75.2685 70.7843C70.0389 76.9478 63.5019 81.0567 55.4708 82.7377C46.6926 84.6054 38.4747 83.298 30.2568 78.8155C37.3541 73.3991 44.4513 68.1696 51.5486 62.94C53.2296 64.4341 54.7237 65.9283 56.2179 67.4225C57.8988 69.1034 57.3385 69.1034 59.393 67.9828C62.3813 66.3018 64.8093 64.0606 66.677 61.2591C66.677 61.0723 66.8638 60.8855 67.0505 60.6987C67.0505 60.512 67.2373 60.512 67.4241 60.3252ZM36.0467 67.2357C33.9922 68.7299 32.1245 70.0373 30.4436 71.5314C29.1362 72.6521 27.642 73.5859 26.3346 74.5197C25.7743 75.0801 25.4008 75.0801 24.6537 74.5197C18.677 69.1034 14.7548 62.3797 13.2607 54.3485C11.7665 46.3174 13.0739 38.6598 16.9961 31.3758C16.9961 31.189 17.1829 31.0022 17.3697 30.8155C17.3697 30.8155 17.3696 30.8155 17.5564 30.6287C22.7859 37.5392 28.2023 44.4497 33.4319 51.547C33.2451 51.7337 33.2451 51.9205 33.0584 52.1073C31.3774 53.7882 29.8832 55.4692 28.2023 56.9633C27.642 57.5236 27.642 57.8972 28.0155 58.4575C29.6965 61.6326 31.9377 64.2474 34.9261 66.4886C35.2996 66.6754 35.6732 67.0489 36.0467 67.2357ZM65.7432 17.7415C63.1284 19.6092 60.7004 21.4769 58.0856 23.1579C53.6031 26.333 49.3074 29.5081 45.0117 32.4964C44.4513 32.8699 44.0778 33.0567 43.5175 32.4964C42.0234 31.0022 40.5291 29.6948 39.035 28.0139C38.6614 27.6404 38.2879 27.4536 37.7276 27.8271C34.3658 29.5081 31.5642 32.1229 29.323 35.1112C29.1362 35.298 28.9494 35.4847 28.7626 35.6715C27.4552 33.9905 26.3346 32.4964 25.0272 30.8155C23.7198 29.1345 22.5992 27.4536 21.2918 25.9594C20.9182 25.3991 20.7315 25.0256 21.2918 24.4653C27.4552 17.7415 34.9261 13.6326 44.0778 12.6987C51.1751 11.9517 58.0856 13.259 64.4358 16.8077C64.6225 16.9945 64.9961 16.9944 65.1828 17.1812C65.7432 17.5548 65.7432 17.7415 65.7432 17.7415ZM78.8171 65.5548C77.1362 63.3135 75.642 61.4458 74.1479 59.3914C70.5992 54.7221 67.0506 50.0528 63.5019 45.3836C62.9416 44.8233 62.9416 44.2629 63.5019 43.7026C64.9961 42.2085 66.4902 40.7143 67.9844 39.2201C68.3579 38.8466 68.5447 38.4731 68.1712 37.9128C66.4902 34.5509 64.0622 31.7493 60.8871 29.5081C60.7004 29.3213 60.3268 29.1345 60.1401 28.9478C60.3268 28.761 60.7004 28.5742 60.7004 28.3874C63.6887 26.1462 66.677 23.905 69.8521 21.4769C70.4124 21.1034 70.786 20.9166 71.3463 21.4769C79.0039 28.3874 82.9261 36.7921 83.4864 47.2513C83.6731 53.2279 82.3657 58.831 79.5642 64.2474C79.3774 64.6209 79.0039 64.9944 78.8171 65.5548Z" fill="#231815"/>
</svg>
