<svg width="96" height="97" viewBox="0 0 96 97" fill="none" xmlns="http://www.w3.org/2000/svg">
<g clip-path="url(#clip0)">
<circle cx="47.9995" cy="48.4214" r="47.9995" transform="rotate(90 47.9995 48.4214)" fill="#FF2D83"/>
<path d="M61.9977 63.2733C67.9477 63.6733 73.3477 60.6733 76.2477 55.3733C77.3977 53.2233 77.6977 51.9733 77.8477 48.9233C77.9477 46.5733 77.7477 44.5233 77.2977 43.3733C74.6977 36.5733 68.0977 32.3733 61.2977 33.0733C56.2977 33.5733 52.6977 36.1733 48.0977 42.6233L46.6977 44.5748C48.5225 44.5433 50.3459 44.5248 52.1709 44.5248C52.1709 44.5248 53.0739 43.7515 54.0977 42.4233C56.9977 38.6233 60.8477 37.0733 64.9977 37.9733C73.2477 39.8233 76.1977 49.7233 70.2977 55.6733C67.4977 58.4233 62.8477 59.6733 59.7977 58.4733C58.6977 58.0733 59.0477 57.7233 61.0977 57.2233C61.8477 57.0733 62.9977 56.7233 63.6977 56.4233C64.8477 55.9733 64.8977 55.8233 64.3977 54.3233C64.0977 53.4233 63.6977 52.4733 63.4977 52.2733C63.1977 51.9733 50.6977 55.1233 50.0977 55.6733C49.9977 55.7733 50.9477 58.7233 52.1477 62.2733L54.3977 68.6733L55.9477 68.5733C58.6977 68.4733 59.0977 67.7233 57.9477 64.8233C57.0477 62.4733 57.0477 62.3233 57.8477 62.6733C58.3477 62.9233 60.1977 63.1733 61.9977 63.2733Z" fill="white"/>
<path d="M26.9477 50.9233L46.6977 50.9233L66.4977 50.9233L66.4977 48.6733L66.4977 46.4233L46.8977 46.5233L27.2477 46.6733L27.0977 48.8233L26.9477 50.9233Z" fill="white"/>
<path d="M37.9977 61.6233C39.6977 60.6733 41.7477 58.8733 43.3477 56.8733C44.7977 55.1233 45.9977 53.0733 45.9977 53.0733L40.9209 52.9233C40.9209 52.9233 40.9209 52.9501 38.7977 55.0733C34.2977 59.7233 28.5977 60.1733 24.1477 56.2733C19.7477 52.4233 19.2477 45.1733 23.1477 41.0233C25.8977 38.0233 31.0977 36.8733 34.1977 38.5233L35.6477 39.2733L32.4977 39.5733C30.7477 39.7733 29.2477 40.0233 29.0977 40.1233C28.9977 40.2733 29.0477 41.2733 29.2477 42.3733C29.5477 44.0733 29.7977 44.4233 30.6977 44.4233C32.0477 44.4233 42.4977 42.9733 43.2977 42.7233C43.6977 42.5733 43.4477 40.4233 42.4477 35.5733C41.6477 31.7733 40.9977 28.6233 40.9977 28.5233C40.9977 28.4233 40.5977 28.4733 40.1477 28.5733C39.6477 28.7233 38.5977 28.9733 37.8477 29.1233C36.3477 29.4733 36.3477 29.4233 37.3477 33.7733L37.5977 34.8733L34.8977 33.8233C28.3977 31.3733 20.0977 35.1733 16.9477 42.0733C15.7977 44.7233 15.6977 50.3233 16.7977 53.5733C17.7977 56.5733 20.7477 59.8233 24.0477 61.6733C26.4477 63.0233 27.1977 63.1733 30.9977 63.1733C34.8477 63.1733 35.4977 63.0233 37.9977 61.6233Z" fill="white"/>
</g>
<defs>
<clipPath id="clip0">
<rect width="96" height="96" fill="white" transform="translate(0 0.421875)"/>
</clipPath>
</defs>
</svg>
