<svg width="97" height="96" viewBox="0 0 97 96" fill="none" xmlns="http://www.w3.org/2000/svg">
<g clip-path="url(#clip0)">
<path d="M48.4299 96C74.9396 96 96.4299 74.5097 96.4299 48C96.4299 21.4903 74.9396 0 48.4299 0C21.9203 0 0.429932 21.4903 0.429932 48C0.429932 74.5097 21.9203 96 48.4299 96Z" fill="#FBFCFD"/>
<path d="M35.0378 28.7256L34.2044 30.0589L33.9103 30.5687L24.8025 45.1177L22.4005 48.9609L22.4299 49.0099L29.5476 60.4021L32.5182 56.1766L28.0378 49.0099L28.0084 48.9609L33.2142 40.6275H33.224L35.7437 36.5883L35.9495 36.255L40.6456 28.7256H35.0378Z" fill="black"/>
<path d="M42.8025 70.3822L45.7829 75.1371H48.3907H76.2143L67.3417 62.5391L64.5966 66.9214L67.0378 70.3822H61.0574V70.3724L48.3907 70.3822H42.8025Z" fill="black"/>
<path d="M48.4202 16.2841L48.43 16.2939L50.479 19.5782L50.8123 20.0782L60.2241 35.137L63.1849 30.9312L61.0574 27.5194H61.0672L58.2731 23.039L58.077 22.7547L48.43 7.31352L48.4202 7.30371L39.5084 21.5684H45.1261L48.4202 16.2841Z" fill="black"/>
<path d="M29.8417 70.3822L33.0084 65.8822L38.4103 58.2057C39.6842 59.5952 41.2322 60.7055 42.9568 61.4665C44.6813 62.2276 46.5449 62.6228 48.4299 62.6273C50.319 62.6269 52.1874 62.2347 53.9171 61.4753C55.6468 60.7159 57.2002 59.6059 58.479 58.2155L60.1554 60.5979L62.9005 56.2155L61.2142 53.8234C61.7961 52.2885 62.0951 50.6609 62.0966 49.0195V48.9606C62.0983 47.3061 61.7993 45.6651 61.2142 44.1175L63.6456 40.6763L71.8809 28.9705L76.2339 22.7842H59.5672L62.5084 27.5489H67.0672L58.479 39.6861C57.2029 38.3042 55.6551 37.2007 53.9327 36.4449C52.2102 35.6891 50.3501 35.2973 48.4692 35.294C46.5797 35.292 44.7106 35.6832 42.9805 36.4427C41.2505 37.2022 39.6974 38.3135 38.4201 39.7057L36.7045 37.3136L33.9594 41.6861L35.6456 44.1175C35.0457 45.682 34.74 47.3439 34.7437 49.0195C34.7502 50.6623 35.0558 52.2901 35.6456 53.8234L33.175 57.3234L25.5476 68.1077L20.6456 75.0881H37.3613L34.4201 70.3332L29.8417 70.3822ZM39.5476 48.9508C39.5502 46.5855 40.491 44.3178 42.1635 42.6452C43.8361 40.9727 46.1038 40.0319 48.4692 40.0293C50.8328 40.0345 53.098 40.9764 54.7685 42.6487C56.4389 44.3209 57.3783 46.5872 57.3809 48.9508C57.3809 48.9508 57.3809 48.9508 57.3809 49.0097C57.3577 51.3588 56.4088 53.604 54.7403 55.2578C53.0719 56.9116 50.8184 57.8405 48.4692 57.843C46.1267 57.8328 43.8822 56.9018 42.2203 55.2509C40.5584 53.6001 39.6125 51.3618 39.5868 49.0195L39.5476 48.9508Z" fill="black"/>
<path d="M32.2436 30.9804L29.8024 27.5196H35.7926L35.773 27.5392H41.3907L41.4103 27.5196H48.5475H54.0573L51.077 22.7549H48.5475H20.626L29.5083 35.3627L32.2436 30.9804Z" fill="black"/>
<path d="M61.7828 69.1765L71.126 54.2451H71.1358L74.4103 49.0098L74.4397 48.951L67.2926 37.5L64.322 41.7255L68.8318 48.951L68.7926 49.0098L67.7436 50.6863L67.4593 51.1569L61.0965 61.3137L60.8711 61.6863L56.1946 69.1765H61.7828Z" fill="black"/>
<path d="M48.4202 81.6177L48.3908 81.5588L38.3319 65.4902L38.3417 65.4804L36.6359 62.7451L33.6653 66.9706L35.7927 70.3824H35.7829L44.0574 83.5981L48.3908 90.5392L48.4202 90.5981L57.3319 76.3334H51.7241L48.4202 81.6177Z" fill="black"/>
</g>
<defs>
<clipPath id="clip0">
<rect width="96" height="96" fill="white" transform="translate(0.429932)"/>
</clipPath>
</defs>
</svg>
