<svg width="96" height="96" viewBox="0 0 96 96" fill="none" xmlns="http://www.w3.org/2000/svg">
<circle cx="48" cy="48" r="48" fill="white"/>
<path d="M48 19.5952C36.2541 19.5952 26.6541 29.1387 26.6541 40.9411C26.6541 43.3129 27.0494 45.6282 27.7835 47.887C28.2918 49.4117 29.9859 50.2587 31.5671 49.7505C33.0918 49.2423 33.9388 47.5482 33.4306 45.967C32.8094 44.2164 32.5271 42.3529 32.5835 40.4893C32.8094 32.527 39.2471 25.9764 47.2094 25.5811C56.0753 25.1293 63.4165 32.1882 63.4165 40.9411C63.4165 49.1293 56.9788 55.8493 48.9035 56.3011C48.9035 56.3011 45.9106 56.4705 44.4423 56.6964C43.7082 56.8093 43.1435 56.9223 42.7482 56.9787C42.5788 57.0352 42.4094 56.8658 42.4659 56.6964L42.9741 54.2117L45.7412 41.4493C46.08 39.8682 45.0635 38.287 43.4823 37.9482C41.9012 37.6093 40.32 38.6258 39.9812 40.207C39.9812 40.207 33.3176 71.2658 33.2612 71.6046C32.9223 73.1858 33.9388 74.767 35.52 75.1058C37.1012 75.4446 38.6823 74.4282 39.0212 72.847C39.0776 72.5082 39.9812 68.3858 39.9812 68.3858C40.6588 65.2235 43.2565 62.9082 46.3059 62.5129C46.9835 62.3999 49.6376 62.2305 49.6376 62.2305C60.6494 61.3835 69.3459 52.1787 69.3459 40.9411C69.3459 29.1387 59.7459 19.5952 48 19.5952Z" fill="black"/>
<path d="M49.5247 68.7247C47.6047 68.3294 45.6847 69.5153 45.2894 71.4917C44.8941 73.4117 46.08 75.3317 48.0565 75.727C49.9765 76.1223 51.8965 74.9364 52.2918 72.96C52.6871 70.9835 51.5012 69.12 49.5247 68.7247Z" fill="#E6007A"/>
</svg>
