<svg width="96" height="96" viewBox="0 0 96 96" fill="none" xmlns="http://www.w3.org/2000/svg">
<path fill-rule="evenodd" clip-rule="evenodd" d="M48 96C74.5097 96 96 74.5097 96 48C96 21.4903 74.5097 0 48 0C21.4903 0 0 21.4903 0 48C0 74.5097 21.4903 96 48 96Z" fill="#5269FF"/>
<path fill-rule="evenodd" clip-rule="evenodd" d="M47.6841 79.6468L67.7402 68.0479L67.79 47.6884L48.2326 36.2847L41.9282 39.6011L61.5563 50.9881L61.4898 64.6609L47.6757 72.6235L33.8617 64.6359V31.3642L47.6757 23.3767L54.2752 27.1377V38.051L60.5339 41.6458V23.5263H60.5298L47.6674 16.3492L27.628 27.9232L27.6072 27.9107V68.0479L47.6757 79.651H47.6841V79.6468ZM51.4596 46.6962L51.4576 46.6951H51.4617L51.4596 46.6962ZM51.4596 46.6962L46.9734 49.0888V44.1392L41.9282 41.1636V57.654L56.2908 49.4753L51.4596 46.6962Z" fill="white"/>
</svg>
