<svg width="29" height="29" viewBox="0 0 29 29" fill="none" xmlns="http://www.w3.org/2000/svg">
<path d="M21.8143 13.9862C22.041 13.9269 22.2713 14.0699 22.3271 14.3002L22.6968 15.828C22.7526 16.0548 22.6131 16.2885 22.3864 16.3443C22.1596 16.4036 21.9294 16.2606 21.8736 16.0304L21.5038 14.5025C21.448 14.2757 21.5876 14.042 21.8143 13.9862ZM10.3553 2.81326C10.2262 2.61094 10.2855 2.34932 10.4739 2.22026L11.7785 1.35865C11.9773 1.22958 12.239 1.28888 12.368 1.48074C12.4971 1.68306 12.4378 1.94468 12.2494 2.07375L10.9448 2.93535C10.7495 3.06791 10.4878 3.00861 10.3553 2.81326Z" fill="white"/>
<path fill-rule="evenodd" clip-rule="evenodd" d="M17.0945 8.15463C15.5846 7.81433 13.9643 8.09403 12.6364 8.99453C14.6352 8.32473 16.934 8.78873 18.5247 10.3968C20.7642 12.6607 20.7642 16.3478 18.5247 18.6117C18.2561 18.8838 17.9631 19.1245 17.6526 19.3303C18.4724 19.0477 19.2468 18.5873 19.8991 17.928C21.4827 16.3271 21.9465 14.0145 21.2904 11.9968C19.4635 11.2762 17.9677 9.89833 17.0945 8.15463Z" fill="#FFAE54"/>
<path d="M26.5161 21.1436L26.516 21.1438C22.8859 27.8534 14.5585 30.3044 7.92811 26.6436C1.29532 22.9814 -1.14986 14.5676 2.48241 7.85413C4.87233 3.43684 9.29801 0.862334 13.9356 0.664264C14.551 0.637984 15.0278 0.962214 15.3592 1.53722C15.6985 2.12614 15.8497 2.93475 15.7688 3.69957C15.7375 3.99581 15.7215 4.29644 15.7215 4.60062C15.7215 6.02827 16.0742 7.37353 16.6971 8.55413C13.8136 7.46533 10.4955 8.65953 8.98051 11.4566C7.32071 14.5213 8.43761 18.3825 11.4808 20.0643C14.5278 21.7481 18.3567 20.6083 20.0179 17.5413L20.0181 17.5408C20.9477 15.8207 21.0047 13.8492 20.3373 12.1531C21.4971 12.7483 22.8118 13.0841 24.205 13.0841C24.986 13.0841 25.7432 12.9784 26.4627 12.7803C26.8738 12.667 27.3145 12.7155 27.6438 12.8842C27.9622 13.0472 28.1516 13.3034 28.1724 13.634C28.3314 16.1594 27.8078 18.7585 26.5161 21.1436Z" fill="url(#paint0_radial)" stroke="#AC562A" stroke-width="1.0716"/>
<path d="M23.0038 18.3814L23.5093 18.2038C23.5093 18.2039 23.5093 18.2039 23.5094 18.204C23.8661 19.2197 23.404 20.1041 23.0639 20.7552C23.0534 20.7753 23.0431 20.7951 23.0328 20.8148C22.8266 21.2105 22.6623 21.5325 22.5875 21.8543C22.4699 22.3626 22.4877 22.8356 22.6319 23.1924C22.7669 23.5263 23.0226 23.7901 23.4818 23.9119C23.7877 23.9913 24.2569 23.8748 24.8745 23.4935C27.252 20.6785 28.3361 17.133 28.1257 13.6513C28.1058 13.3211 27.9175 13.0645 27.6005 12.9005C27.2725 12.7308 26.833 12.6804 26.4221 12.7913C25.7148 12.9823 24.9714 13.0841 24.2051 13.0841C22.7925 13.0841 21.4605 12.7388 20.2889 12.128C20.9747 13.8259 20.9042 15.7585 20.0628 17.4024C19.926 17.6697 19.7688 17.9293 19.5912 18.1791C19.9456 18.0695 20.3916 17.8614 20.9422 17.5163C21.7689 17 22.7003 17.5128 23.0038 18.3814ZM23.0038 18.3814C23.2828 19.1756 22.9204 19.8711 22.5577 20.5672C22.358 20.9503 22.1583 21.3336 22.0654 21.7336L23.0038 18.3814ZM13.3558 8.26103L13.3336 8.26503L13.3118 8.27083C11.9656 8.62843 10.8837 8.45673 10.0554 8.01563C9.21912 7.57033 8.60002 6.82793 8.23122 5.98075C7.86092 5.13049 7.75622 4.20489 7.91612 3.42415C8.07422 2.65216 8.47962 2.05566 9.11102 1.75271C10.7837 1.03771 12.5675 0.672744 14.3532 0.658354C14.8606 0.654264 15.2628 0.934344 15.5373 1.42667C15.818 1.9303 15.9309 2.61171 15.8299 3.24485C15.7591 3.68898 15.7216 4.14367 15.7216 4.60059C15.7216 6.04144 16.0808 7.39843 16.7146 8.58683C15.6417 8.17063 14.4783 8.06193 13.3558 8.26103Z" fill="#AC562A" stroke="#AC562A" stroke-width="1.0716"/>
<path d="M4.11258 12.0125C4.50713 12.0125 4.82698 11.6927 4.82698 11.2981C4.82698 10.9036 4.50713 10.5837 4.11258 10.5837C3.71803 10.5837 3.39818 10.9036 3.39818 11.2981C3.39818 11.6927 3.71803 12.0125 4.11258 12.0125Z" fill="#AC562A"/>
<path d="M14.4715 24.5147C14.8661 24.5147 15.1859 24.1949 15.1859 23.8003C15.1859 23.4058 14.8661 23.0859 14.4715 23.0859C14.077 23.0859 13.7571 23.4058 13.7571 23.8003C13.7571 24.1949 14.077 24.5147 14.4715 24.5147Z" fill="#AC562A"/>
<path d="M10.0957 25.5863C10.7369 25.5863 11.2566 25.0666 11.2566 24.4254C11.2566 23.7843 10.7369 23.2645 10.0957 23.2645C9.45457 23.2645 8.93481 23.7843 8.93481 24.4254C8.93481 25.0666 9.45457 25.5863 10.0957 25.5863Z" fill="#AC562A"/>
<defs>
<radialGradient id="paint0_radial" cx="0" cy="0" r="1" gradientUnits="userSpaceOnUse" gradientTransform="translate(14.5 14.4968) rotate(90) scale(14.3808 14.2359)">
<stop offset="0.333505" stop-color="#F7B450"/>
<stop offset="0.64773" stop-color="#FFC977"/>
<stop offset="1" stop-color="#FF9900"/>
</radialGradient>
</defs>
</svg>
