<svg width="96" height="96" viewBox="0 0 96 96" fill="none" xmlns="http://www.w3.org/2000/svg">
<path d="M48 96C74.5097 96 96 74.5097 96 48C96 21.4903 74.5097 0 48 0C21.4903 0 0 21.4903 0 48C0 74.5097 21.4903 96 48 96Z" fill="#26A17B"/>
<path d="M53.1982 52.7846C52.8895 52.7846 51.1146 52.9389 47.3332 52.9389C44.2464 52.9389 42.1628 52.8617 41.3911 52.7846C29.7384 52.3215 20.941 50.2379 20.941 47.8457C20.941 45.3762 29.6612 43.3698 41.3911 42.8296V50.7781C42.1628 50.8553 44.3236 50.9325 47.4104 50.9325C51.0374 50.9325 52.8895 50.7781 53.1982 50.7781V42.8296C64.9281 43.3698 73.6484 45.3762 73.6484 47.8457C73.6484 50.2379 64.9281 52.3215 53.1982 52.7846ZM53.1982 41.9807V34.881H69.5583V24H25.1082V34.881H41.4683V41.9807C28.195 42.5981 18.24 45.2219 18.24 48.3859C18.24 51.5498 28.195 54.1736 41.4683 54.791V77.6334H53.2754V54.791C66.5487 54.1736 76.5037 51.5498 76.5037 48.3859C76.4265 45.2219 66.4715 42.5981 53.1982 41.9807Z" fill="white"/>
</svg>
