<svg width="500" height="500" viewBox="0 0 500 500" fill="none" xmlns="http://www.w3.org/2000/svg">
<g clip-path="url(#clip0)">
<path d="M250 500C112.5 500 0 387.5 0 250C0 112.5 112.5 0 250 0C387.5 0 500 112.5 500 250C500 387.5 387.5 500 250 500Z" fill="#DE2408"/>
<path d="M251.28 256.41C96.9999 191.21 165.39 -9.73 312.95 0.37C283.1 15.71 278.77 44.34 295.82 70.86C314.91 100.55 294.06 148.32 268.26 159.93C225.84 179.01 217.35 229.91 251.28 256.41Z" fill="#B30000"/>
<path d="M242.94 111.32L234.26 124.94L231.12 109.09L215.47 105.04L229.58 97.15L228.59 81.02L240.44 92L255.48 86.07L248.72 100.75L258.98 113.21L242.94 111.32Z" fill="#DE2408"/>
<path d="M252.16 254.72C233.5 245.14 218.45 225.18 211.9 201.32C204.4 173.96 208.72 144.53 223.75 120.65L220.51 118.61C204.91 143.42 200.44 173.93 208.22 202.33C215.15 227.57 230.52 247.91 250.41 258.12L252.16 254.72Z" fill="#DE2408"/>
<path d="M251.44 256.45C265.78 89.57 478.02 92.52 514.01 235.97C490.2 212.32 461.63 217.05 441.68 241.46C419.34 268.79 367.47 263.73 348.45 242.77C317.19 208.34 266.16 215.99 251.44 256.45Z" fill="#B30000"/>
<path d="M386.86 203.68L371.22 199.64L385.32 191.75L384.33 175.61L396.21 186.59L411.23 180.67L404.46 195.33L414.74 207.8L398.7 205.91L390.01 219.52L386.86 203.68Z" fill="#DE2408"/>
<path d="M253.32 256.76C256.66 236.05 271 215.58 291.66 201.97C315.37 186.38 344.68 181.39 372.04 188.31L372.98 184.6C344.56 177.43 314.17 182.61 289.56 198.78C267.69 213.17 253.1 234.07 249.54 256.15L253.32 256.76Z" fill="#DE2408"/>
<path d="M251.45 256.61C414.6 218.68 477.38 421.44 352.07 500C367.2 470.04 353.88 444.34 324.5 432.91C291.6 420.11 280.39 369.21 294.45 344.65C317.53 304.28 294.48 258.11 251.45 256.61Z" fill="#B30000"/>
<path d="M343.49 369.09L342.5 352.97L354.36 363.95L369.4 358.02L362.63 372.7L372.9 385.17L356.86 383.25L348.18 396.88L345.03 381.04L329.4 376.99L343.49 369.09Z" fill="#DE2408"/>
<path d="M251.74 258.49C272.47 255.27 296.37 262.58 315.7 278.02C337.85 295.75 351.65 322.09 353.53 350.25L357.35 350C355.38 320.76 341.07 293.45 318.08 275.04C297.64 258.69 273.25 251.27 251.15 254.7L251.74 258.49Z" fill="#DE2408"/>
<path d="M251.3 256.67C337.79 400.11 164.35 522.47 50.9199 427.57C84.0899 432.7 104.41 412.09 106.21 380.61C108.22 345.37 153.16 318.98 180.86 324.75C226.39 334.25 263.18 298.06 251.3 256.67Z" fill="#B30000"/>
<path d="M172.77 378.96L187.79 373.04L181.02 387.71L191.31 400.18L175.25 398.28L166.57 411.9L163.43 396.06L147.79 392.02L161.88 384.12L160.91 368L172.77 378.96Z" fill="#DE2408"/>
<path d="M249.6 257.53C259.07 276.25 259.5 301.24 250.79 324.39C240.77 350.93 219.99 372.2 193.79 382.69L195.21 386.24C222.41 375.33 243.96 353.28 254.36 325.73C263.59 301.24 263.11 275.75 253.02 255.79L249.6 257.53Z" fill="#DE2408"/>
<path d="M251.2 256.55C141.51 383.14 -28.46 256 26.74 118.78C32.11 151.91 57.99 164.87 88.48 156.85C122.62 147.87 161.61 182.46 164.67 210.59C169.72 256.83 215.51 280.63 251.2 256.55Z" fill="#B30000"/>
<path d="M110.63 219.65L120.9 232.11L104.85 230.2L96.17 243.84L93.02 227.98L77.38 223.93L91.48 216.05L90.49 199.93L102.36 210.89L117.39 204.98L110.63 219.65Z" fill="#DE2408"/>
<path d="M249.86 255.2C234.98 269.99 211.35 278.13 186.63 276.99C158.29 275.66 131.64 262.47 113.57 240.79L110.63 243.24C129.41 265.74 157.04 279.42 186.45 280.8C212.6 282.01 236.69 273.68 252.55 257.91L249.86 255.2Z" fill="#DE2408"/>
<path d="M376 400H124C110.8 400 100 389.2 100 376V124C100 110.8 110.8 100 124 100H376C389.2 100 400 110.8 400 124V376C400 389.2 389.2 400 376 400Z" fill="white"/>
<path d="M159 369.8C158.21 369.8 157.57 369.08 157.57 368.29V327.98C157.57 327.19 156.93 326.47 156.14 326.47H141.91C141.11 326.47 140.4 325.83 140.4 325.04V317.25C140.4 316.46 141.12 315.74 141.91 315.74H185.71C186.5 315.74 187.22 316.45 187.22 317.25V325.04C187.22 325.83 186.5 326.47 185.71 326.47H171.56C170.77 326.47 170.05 327.18 170.05 327.98V368.29C170.05 369.08 169.41 369.8 168.62 369.8H159Z" fill="#DE2408"/>
<path d="M231.98 369.8C231.18 369.8 230.55 369.08 230.55 368.29V349.37C230.55 348.58 229.91 347.86 229.12 347.86H210.52C209.73 347.86 209.09 348.58 209.09 349.37V368.29C209.09 369.08 208.37 369.8 207.58 369.8H198.04C197.25 369.8 196.61 369.08 196.61 368.29V317.25C196.61 316.46 197.25 315.74 198.04 315.74H207.58C208.37 315.74 209.09 316.45 209.09 317.25V335.61C209.09 336.4 209.73 337.12 210.52 337.12H229.12C229.92 337.12 230.55 336.4 230.55 335.61V317.25C230.55 316.46 231.19 315.74 231.98 315.74H241.52C242.31 315.74 243.03 316.45 243.03 317.25V368.29C243.03 369.08 242.31 369.8 241.52 369.8H231.98Z" fill="#DE2408"/>
<path d="M286.12 369.8C284.85 369.8 284.05 369.56 282.94 368.05L267.6 348.1C267.28 347.62 266.81 347.7 266.81 348.18V368.29C266.81 369.08 266.17 369.8 265.38 369.8H255.76C254.97 369.8 254.33 369.08 254.33 368.29V317.25C254.33 316.46 254.97 315.74 255.76 315.74H265.3C266.09 315.74 266.81 316.45 266.81 317.25V336.33C266.81 336.89 267.29 336.81 267.6 336.41L283.5 316.85C284.22 315.98 284.61 315.74 285.88 315.74H295.66C296.85 315.74 297.41 317.09 296.54 318.05L278.97 338.64C277.3 340.63 277.46 341.42 278.89 343.25L298.05 367.58C298.93 368.69 298.45 369.81 297.34 369.81H286.12V369.8Z" fill="#DE2408"/>
<path d="M309.89 369.8C309.1 369.8 308.46 369.08 308.46 368.29V317.25C308.46 316.46 309.1 315.74 309.89 315.74H331.51C347.57 315.74 360.05 326.79 360.05 342.93C360.05 358.83 347.73 369.8 331.51 369.8H309.89ZM331.51 359.06C340.18 359.06 346.93 352.22 346.93 342.76C346.93 333.3 340.17 326.46 331.43 326.46H322.45C321.66 326.46 321.02 327.17 321.02 327.97V357.62C321.02 358.41 321.66 359.05 322.45 359.05H331.51V359.06Z" fill="#DE2408"/>
<path d="M392 286H108C105.8 286 104 284.2 104 282V124C104 113 113 104 124 104H376C387 104 396 113 396 124V282C396 284.2 394.2 286 392 286Z" fill="#DE2408"/>
<path d="M309 169.56H191C189.35 169.56 188 168.21 188 166.56V140.56C188 138.91 189.35 137.56 191 137.56H309C310.65 137.56 312 138.91 312 140.56V166.56C312 168.21 310.65 169.56 309 169.56Z" fill="white"/>
<path d="M264.73 253.56H238.73C237.08 253.56 235.73 252.21 235.73 250.56V140.56C235.73 138.91 237.08 137.56 238.73 137.56H264.73C266.38 137.56 267.73 138.91 267.73 140.56V250.56C267.73 252.21 266.38 253.56 264.73 253.56Z" fill="white"/>
</g>
<defs>
<clipPath id="clip0">
<rect width="500" height="500" fill="white"/>
</clipPath>
</defs>
</svg>
