<svg width="96" height="96" viewBox="0 0 96 96" fill="none" xmlns="http://www.w3.org/2000/svg">
<path d="M48 0C21.478 0 0 21.478 0 48C0 74.522 21.478 96 48 96C74.522 96 96 74.522 96 48C96 21.478 74.522 0 48 0ZM51.9051 50.278L68.7458 67.1186C70.1288 68.5017 69.9661 70.6983 68.4203 71.9187C63.2136 75.9865 56.7051 78.4271 49.6271 78.4271C31.6475 78.4271 17.3288 62.8881 19.4441 44.5017C20.9898 30.4271 32.461 19.1186 46.5356 17.7356C54.8339 16.922 62.5627 19.4441 68.5017 24.1627C69.9661 25.3017 70.0475 27.5797 68.7458 28.8814L51.9051 45.722C50.6034 47.0237 50.6034 48.9763 51.9051 50.278Z" fill="#69E2DC"/>
</svg>
