<svg width="96" height="96" viewBox="0 0 96 96" fill="none" xmlns="http://www.w3.org/2000/svg">
<path d="M48 96C74.5097 96 96 74.5097 96 48C96 21.4903 74.5097 0 48 0C21.4903 0 0 21.4903 0 48C0 74.5097 21.4903 96 48 96Z" fill="url(#paint0_radial)"/>
<path d="M82.3845 29.8489C88.2691 36.9451 92.423 45.4259 92.423 55.1182C92.423 76.4066 74.0191 93.6566 51.4038 93.6566C28.7307 93.6566 10.3845 76.4066 10.3845 55.1182C10.3845 33.8297 22.9038 36.599 45.5768 36.599C57.923 36.599 78.8076 25.522 82.3845 29.8489Z" fill="url(#paint1_radial)"/>
<path d="M15.7499 58.9616L10.7883 50.9424C16.096 69.4039 23.5383 74.2501 30.0576 78.5193C22.2691 70.5578 15.7499 58.9616 15.7499 58.9616Z" fill="url(#paint2_linear)"/>
<path d="M82.0962 35.654L82.0385 35.0193H74.1924L82.0962 28.2693V27.9232C81.7501 20.1347 78.1732 15.0578 78.0578 14.8847L77.8847 14.5386H35.4232C31.3847 14.5386 25.9039 15.5193 20.1924 21.8655C16.9039 25.5001 10.9616 33.2309 10.3847 42.1732C9.98085 47.4232 10.6732 52.154 12.6347 56.7117C13.6732 59.077 14.7693 61.2117 16.0385 63.0578C20.077 70.2693 24.4616 75.3463 29.077 78.0001C33.0001 80.3078 36.4616 80.5963 39.3462 80.5963H63.4616L63.6347 80.5386C63.6924 80.4809 71.5962 76.3847 78.6924 72.0578L78.9232 71.9424L78.9809 71.7117C78.9809 71.654 79.0386 71.5963 79.0386 71.5386C79.0962 71.4232 79.1539 71.3078 79.2116 71.1347C80.077 68.654 80.827 63.2309 81.1732 60.2309C81.2885 59.1347 81.4039 58.4424 81.4039 58.4424L81.4616 57.6924L81.5193 57.1155H73.0962L82.0962 50.3078V50.0193C82.6732 43.327 82.0962 35.7693 82.0962 35.654Z" fill="url(#paint3_linear)"/>
<path d="M46.7309 65.654C46.7309 65.654 38.7693 66.404 15.2886 60.2886C24.8655 78.9809 33.8078 79.9616 40.5001 79.9616C45.9809 79.9616 63.2886 79.9616 63.2886 79.9616C63.2886 79.9616 71.1347 75.8655 78.3463 71.4809L46.7309 65.654Z" fill="white"/>
<path d="M40.5 79.327C37.6154 79.327 33.5769 79.327 29.5961 76.7308C22.6154 72.1731 20.3077 68.5962 16.3269 61.0962C34.2115 65.7116 42.8077 66.1731 45.6923 66.1731C46.2115 66.1731 46.5577 66.1731 46.6731 66.1731L77.5961 71.1923C71.25 75 63.8077 78.8654 62.9423 79.327H40.5Z" fill="url(#paint4_linear)"/>
<path d="M31.9615 58.3273C31.9615 58.3273 28.0961 53.885 26.7692 50.4811L70.2692 58.3273L81.4038 49.9042C81.4038 42.9811 81.3461 36.3465 81.3461 36.3465H26.7692C26.7692 36.3465 28.673 30.808 32.1923 28.6157L72.0576 36.058L81.4615 28.0388C81.0576 20.4811 77.4807 15.8657 77.4807 15.8657H55.673C40.3269 15.8657 35.3653 15.8657 35.3653 15.8657C31.673 15.8657 24.173 16.6734 18.5192 23.0196C12.8653 29.3657 7.84611 43.4426 13.2692 56.5388C18.75 69.8657 25.9038 71.5965 29.9423 71.5965C37.3846 71.5965 78.2884 71.5965 78.2884 71.5965C78.3461 71.4234 78.4615 71.1926 78.5192 71.0196C79.673 67.0965 80.6538 58.4426 80.6538 58.4426H70.2692H31.9615V58.3273Z" fill="white"/>
<path d="M43.5577 20.25C43.5577 20.25 27.8654 23.3077 27.0577 23.7115C26.3077 24.1154 23.25 37.9038 23.25 37.9038H68.8846L80.5961 27.9808L43.5577 20.25Z" fill="url(#paint5_linear)"/>
<path d="M43.6153 42.1733C43.6153 42.1733 27.923 45.231 27.1153 45.6349C26.3653 46.0387 23.3076 59.8272 23.3076 59.8272H67.2692L80.6538 49.6156L43.6153 42.1733Z" fill="url(#paint6_linear)"/>
<path d="M23.0194 30.4617L21.981 40.154L32.1925 40.6732V26.5386L23.0194 30.4617Z" fill="#BD15D4"/>
<path d="M81.4615 49.904H26.8269C28.1538 53.3079 32.0192 57.7502 32.0192 57.7502H80.7692C80.7692 57.7502 79.7885 67.3848 78.5769 70.904C78.5769 70.904 32.8269 70.904 31.4423 70.904C25.4423 70.904 18.9808 68.8848 13.3269 55.8463C7.67307 42.8079 12.9231 28.6733 18.5769 22.3271C24.2308 16.0387 31.7308 15.231 35.4231 15.231C35.4231 15.231 40.3846 15.231 55.7308 15.231H77.4808C77.4808 15.231 81.1154 20.2502 81.4615 28.0386H32.1923C28.7308 30.231 26.7692 35.7694 26.7692 35.7694H81.4038C81.4615 35.7117 81.9808 43.2117 81.4615 49.904Z" fill="url(#paint7_linear)"/>
<path d="M16.0962 24.3463C13.5 29.7694 10.5577 37.8463 12.75 45.8655C13.9615 39.8655 15.9231 32.0194 23.4231 23.0771L25.1538 17.1348C25.2115 17.1348 18.75 18.9232 16.0962 24.3463Z" fill="url(#paint8_linear)"/>
<path d="M71.7115 11.7692C71.7115 11.7692 68.3076 9.11532 61.9615 7.03839C51.9807 3.69224 35.5961 1.78839 19.9615 13.673C12.923 19.0384 9.51916 25.9038 7.7307 31.5576C3.05762 46.4422 11.8269 58.9615 11.8269 58.9615C11.8269 58.9615 4.78839 41.7692 16.3845 27.7499C17.8269 25.9615 19.4999 24.2884 21.2884 22.7307C25.6153 26.1922 33.1153 26.4807 37.4422 23.0192C41.6538 19.6153 39.4038 15.0576 38.0192 13.0384C48.6345 9.05763 60.7499 8.07686 71.7115 11.7692Z" fill="url(#paint9_linear)"/>
<path d="M18.9807 65.7117L13.9614 58.0386C17.9999 68.1347 23.596 72.8655 25.2114 74.1924C19.846 69.0578 18.9807 65.7117 18.9807 65.7117Z" fill="white"/>
<defs>
<radialGradient id="paint0_radial" cx="0" cy="0" r="1" gradientUnits="userSpaceOnUse" gradientTransform="translate(18.9541 15.4127) scale(53.3449)">
<stop stop-color="#00FAFF"/>
<stop offset="0.3939" stop-color="#00FAFF"/>
<stop offset="0.8485" stop-color="#C864E9"/>
</radialGradient>
<radialGradient id="paint1_radial" cx="0" cy="0" r="1" gradientUnits="userSpaceOnUse" gradientTransform="translate(51.2003 58.3102) scale(37.4769 43.3308)">
<stop offset="0.497" stop-color="#00FFFF"/>
<stop offset="1" stop-color="#00F4FF" stop-opacity="0"/>
</radialGradient>
<linearGradient id="paint2_linear" x1="22.8013" y1="66.3092" x2="33.1597" y2="73.0879" gradientUnits="userSpaceOnUse">
<stop stop-color="#9634D6"/>
<stop offset="1" stop-color="#BF43DD"/>
</linearGradient>
<linearGradient id="paint3_linear" x1="56.5582" y1="48.3152" x2="82.1367" y2="65.0542" gradientUnits="userSpaceOnUse">
<stop stop-color="#9634D6"/>
<stop offset="1" stop-color="#BF43DD"/>
</linearGradient>
<linearGradient id="paint4_linear" x1="18.7553" y1="65.5634" x2="70.0651" y2="78.5339" gradientUnits="userSpaceOnUse">
<stop stop-color="#BF43DD"/>
<stop offset="0.5036" stop-color="#8669E1"/>
<stop offset="1" stop-color="#00FFF3"/>
</linearGradient>
<linearGradient id="paint5_linear" x1="33.0222" y1="29.0302" x2="75.8713" y2="33.3717" gradientUnits="userSpaceOnUse">
<stop stop-color="#BF43DD"/>
<stop offset="0.5091" stop-color="#8669E1"/>
<stop offset="1" stop-color="#04A7F1"/>
</linearGradient>
<linearGradient id="paint6_linear" x1="31.2915" y1="43.149" x2="68.6444" y2="64.0283" gradientUnits="userSpaceOnUse">
<stop stop-color="#BF43DD"/>
<stop offset="0.5091" stop-color="#8669E1"/>
<stop offset="1" stop-color="#04A7F1"/>
</linearGradient>
<linearGradient id="paint7_linear" x1="68.9869" y1="59.4523" x2="51.5848" y2="43.4325" gradientUnits="userSpaceOnUse">
<stop stop-color="white"/>
<stop offset="1" stop-color="#00FFF3"/>
</linearGradient>
<linearGradient id="paint8_linear" x1="12.0544" y1="45.282" x2="20.2629" y2="21.8291" gradientUnits="userSpaceOnUse">
<stop stop-color="white" stop-opacity="0"/>
<stop offset="0.8322" stop-color="white"/>
</linearGradient>
<linearGradient id="paint9_linear" x1="42.7575" y1="40.2936" x2="37.0033" y2="22.4358" gradientUnits="userSpaceOnUse">
<stop stop-color="white" stop-opacity="0"/>
<stop offset="1" stop-color="white"/>
</linearGradient>
</defs>
</svg>
