<svg width="500" height="500" viewBox="0 0 500 500" fill="none" xmlns="http://www.w3.org/2000/svg">
<path d="M250 500C112.5 500 0 387.5 0 250C0 112.5 112.5 0 250 0C387.5 0 500 112.5 500 250C500 387.5 387.5 500 250 500Z" fill="#002868"/>
<path d="M376 400H124C110.8 400 100 389.2 100 376V124C100 110.8 110.8 100 124 100H376C389.2 100 400 110.8 400 124V376C400 389.2 389.2 400 376 400Z" fill="white"/>
<path d="M158.54 369.8C157.75 369.8 157.11 369.08 157.11 368.29V327.98C157.11 327.19 156.47 326.47 155.68 326.47H141.45C140.65 326.47 139.94 325.83 139.94 325.04V317.25C139.94 316.46 140.66 315.74 141.45 315.74H185.25C186.04 315.74 186.76 316.45 186.76 317.25V325.04C186.76 325.83 186.04 326.47 185.25 326.47H171.1C170.31 326.47 169.59 327.18 169.59 327.98V368.29C169.59 369.08 168.95 369.8 168.16 369.8H158.54Z" fill="#002868"/>
<path d="M230.48 317.25C230.48 316.46 231.12 315.74 231.91 315.74H241.45C242.24 315.74 242.96 316.45 242.96 317.25V344.76C242.96 361.06 233.74 370.52 219.11 370.52C204.56 370.52 195.42 361.06 195.42 344.76V317.25C195.42 316.46 196.06 315.74 196.85 315.74H206.39C207.18 315.74 207.9 316.45 207.9 317.25V345.15C207.9 353.18 212.03 358.9 219.19 358.9C226.35 358.9 230.48 353.18 230.48 345.15V317.25V317.25Z" fill="#002868"/>
<path d="M286.77 333.39C285.5 333.39 285.1 332.91 284.62 331.96C282.95 328.06 279.29 325.6 273.73 325.6C268.72 325.6 264.51 327.35 264.51 330.69C264.51 334.35 268.41 335.86 276.99 336.89C290.03 338.4 297.5 342.38 297.5 352.71C297.5 364.32 287.32 370.44 274.29 370.44C263 370.44 253.3 364.95 251.79 353.43C251.63 352.32 252.19 351.92 253.3 351.92H262.05C263.16 351.92 263.8 352.4 264.12 353.27C265.31 357.09 269.37 360.03 275.25 360.03C280.42 360.03 284.95 358.12 284.95 354.07C284.95 349.22 280.18 348.35 270.64 347.15C259.67 345.72 252.04 342.54 252.04 332.44C252.04 322.34 260.71 315.11 274.3 315.11C286.54 315.11 295.05 321.71 296.8 331.57C297.04 332.68 296.72 333.4 295.53 333.4H286.77V333.39Z" fill="#002868"/>
<path d="M308.31 369.8C307.52 369.8 306.88 369.08 306.88 368.29V317.25C306.88 316.46 307.52 315.74 308.31 315.74H329.93C345.99 315.74 358.47 326.79 358.47 342.93C358.47 358.83 346.15 369.8 329.93 369.8H308.31ZM329.93 359.06C338.6 359.06 345.35 352.22 345.35 342.76C345.35 333.3 338.59 326.46 329.85 326.46H320.87C320.08 326.46 319.44 327.17 319.44 327.97V357.62C319.44 358.41 320.08 359.05 320.87 359.05H329.93V359.06Z" fill="#002868"/>
<path d="M392 286H108C105.8 286 104 284.2 104 282V124C104 113 113 104 124 104H376C387 104 396 113 396 124V282C396 284.2 394.2 286 392 286Z" fill="#002868"/>
<path d="M264.73 253.56H238.73C237.08 253.56 235.73 252.21 235.73 250.56V140.56C235.73 138.91 237.08 137.56 238.73 137.56H264.73C266.38 137.56 267.73 138.91 267.73 140.56V250.56C267.73 252.21 266.38 253.56 264.73 253.56Z" fill="white"/>
<path d="M309 169.56H191C189.35 169.56 188 168.21 188 166.56V140.56C188 138.91 189.35 137.56 191 137.56H309C310.65 137.56 312 138.91 312 140.56V166.56C312 168.21 310.65 169.56 309 169.56Z" fill="white"/>
</svg>
