<svg width="97" height="97" viewBox="0 0 97 97" fill="none" xmlns="http://www.w3.org/2000/svg">
<path d="M48.0048 96.0096C74.5172 96.0096 96.0096 74.5172 96.0096 48.0048C96.0096 21.4925 74.5172 0 48.0048 0C21.4925 0 0 21.4925 0 48.0048C0 74.5172 21.4925 96.0096 48.0048 96.0096Z" fill="#FBFCFD"/>
<path d="M50.4436 24.2915H26.2581V55.4561H39.2714V37.3049H50.4436C53.2245 37.3884 55.8636 38.5518 57.8011 40.5484C59.7387 42.545 60.8224 45.2177 60.8224 47.9999C60.8224 50.7821 59.7387 53.4549 57.8011 55.4515C55.8636 57.4481 53.2245 58.6115 50.4436 58.695H42.626V71.7083H50.4436C56.7302 71.7083 62.7593 69.211 67.2046 64.7657C71.6499 60.3204 74.1472 54.2913 74.1472 48.0047C74.1485 44.8911 73.5363 41.8078 72.3457 38.9308C71.155 36.0538 69.4092 33.4396 67.208 31.2375C65.0068 29.0354 62.3933 27.2886 59.5168 26.0968C56.6403 24.9049 53.5572 24.2915 50.4436 24.2915Z" fill="#182848"/>
<path d="M39.2714 58.6948H26.2581V71.7082H39.2714V58.6948Z" fill="#405275"/>
</svg>
